<?xml version="1.0" encoding="UTF-8"?>
<svg version="1.1" xmlns="http://www.w3.org/2000/svg" width="509" height="481">
<path d="M0 0 C167.97 0 335.94 0 509 0 C509 158.73 509 317.46 509 481 C341.03 481 173.06 481 0 481 C0 322.27 0 163.54 0 0 Z " fill="#FDFDFD" transform="translate(0,0)"/>
<path d="M0 0 C1.77206192 0.00015919 3.54412846 0.00585754 5.31616211 0.01586914 C6.24698105 0.01728409 7.17779999 0.01869904 8.13682556 0.02015686 C11.12241777 0.02577367 14.10793615 0.03832899 17.09350586 0.05102539 C19.11238499 0.05603823 21.13126529 0.06060151 23.15014648 0.06469727 C28.11046158 0.07574856 33.07072118 0.09302444 38.03100586 0.11352539 C38.03100586 0.77352539 38.03100586 1.43352539 38.03100586 2.11352539 C40.67100586 2.11352539 43.31100586 2.11352539 46.03100586 2.11352539 C46.03100586 2.77352539 46.03100586 3.43352539 46.03100586 4.11352539 C47.68100586 4.11352539 49.33100586 4.11352539 51.03100586 4.11352539 C51.03100586 4.77352539 51.03100586 5.43352539 51.03100586 6.11352539 C52.70163086 6.08258789 52.70163086 6.08258789 54.40600586 6.05102539 C58.03100586 6.11352539 58.03100586 6.11352539 60.03100586 7.11352539 C60.03100586 7.77352539 60.03100586 8.43352539 60.03100586 9.11352539 C61.68100586 9.11352539 63.33100586 9.11352539 65.03100586 9.11352539 C65.03100586 9.77352539 65.03100586 10.43352539 65.03100586 11.11352539 C66.68100586 11.44352539 68.33100586 11.77352539 70.03100586 12.11352539 C70.03100586 12.77352539 70.03100586 13.43352539 70.03100586 14.11352539 C71.02100586 14.11352539 72.01100586 14.11352539 73.03100586 14.11352539 C73.03100586 14.77352539 73.03100586 15.43352539 73.03100586 16.11352539 C73.62913086 16.21665039 74.22725586 16.31977539 74.84350586 16.42602539 C77.40496752 17.2310562 78.22208188 18.15988749 80.03100586 20.11352539 C80.91788086 20.79415039 81.80475586 21.47477539 82.71850586 22.17602539 C83.86319336 23.13508789 83.86319336 23.13508789 85.03100586 24.11352539 C85.03100586 24.77352539 85.03100586 25.43352539 85.03100586 26.11352539 C85.69100586 26.11352539 86.35100586 26.11352539 87.03100586 26.11352539 C89.65600586 28.48852539 89.65600586 28.48852539 92.03100586 31.11352539 C92.03100586 31.77352539 92.03100586 32.43352539 92.03100586 33.11352539 C92.69100586 33.11352539 93.35100586 33.11352539 94.03100586 33.11352539 C94.03100586 34.10352539 94.03100586 35.09352539 94.03100586 36.11352539 C94.69100586 36.11352539 95.35100586 36.11352539 96.03100586 36.11352539 C96.15475586 36.75290039 96.27850586 37.39227539 96.40600586 38.05102539 C96.61225586 38.73165039 96.81850586 39.41227539 97.03100586 40.11352539 C97.69100586 40.44352539 98.35100586 40.77352539 99.03100586 41.11352539 C99.88256836 43.17993164 99.88256836 43.17993164 100.65600586 45.67602539 C100.91639648 46.50231445 101.17678711 47.32860352 101.44506836 48.17993164 C101.73510742 49.13706055 101.73510742 49.13706055 102.03100586 50.11352539 C102.69100586 50.11352539 103.35100586 50.11352539 104.03100586 50.11352539 C104.03100586 51.76352539 104.03100586 53.41352539 104.03100586 55.11352539 C104.69100586 55.11352539 105.35100586 55.11352539 106.03100586 55.11352539 C106.36100586 58.08352539 106.69100586 61.05352539 107.03100586 64.11352539 C107.69100586 64.11352539 108.35100586 64.11352539 109.03100586 64.11352539 C109.03100586 65.76352539 109.03100586 67.41352539 109.03100586 69.11352539 C109.69100586 69.11352539 110.35100586 69.11352539 111.03100586 69.11352539 C111.03100586 70.76352539 111.03100586 72.41352539 111.03100586 74.11352539 C111.69100586 74.11352539 112.35100586 74.11352539 113.03100586 74.11352539 C113.36100586 78.07352539 113.69100586 82.03352539 114.03100586 86.11352539 C107.76100586 86.11352539 101.49100586 86.11352539 95.03100586 86.11352539 C94.09350586 78.73852539 94.09350586 78.73852539 93.8046875 76.4206543 C93.34384131 72.64774201 93.34384131 72.64774201 92.03100586 69.11352539 C91.99078195 66.78053879 91.98780339 64.44645874 92.03100586 62.11352539 C91.37100586 62.11352539 90.71100586 62.11352539 90.03100586 62.11352539 C89.52540678 60.67798514 89.02673096 59.24000519 88.53100586 57.80102539 C88.11334961 56.60026367 88.11334961 56.60026367 87.68725586 55.37524414 C87.03100586 53.11352539 87.03100586 53.11352539 87.03100586 50.11352539 C86.37100586 50.11352539 85.71100586 50.11352539 85.03100586 50.11352539 C84.70100586 47.14352539 84.37100586 44.17352539 84.03100586 41.11352539 C83.37100586 41.11352539 82.71100586 41.11352539 82.03100586 41.11352539 C82.03100586 40.12352539 82.03100586 39.13352539 82.03100586 38.11352539 C81.37100586 38.11352539 80.71100586 38.11352539 80.03100586 38.11352539 C80.03100586 37.45352539 80.03100586 36.79352539 80.03100586 36.11352539 C79.04100586 35.78352539 78.05100586 35.45352539 77.03100586 35.11352539 C77.03100586 33.79352539 77.03100586 32.47352539 77.03100586 31.11352539 C76.37100586 31.11352539 75.71100586 31.11352539 75.03100586 31.11352539 C75.03100586 30.12352539 75.03100586 29.13352539 75.03100586 28.11352539 C74.37100586 28.11352539 73.71100586 28.11352539 73.03100586 28.11352539 C73.03100586 27.45352539 73.03100586 26.79352539 73.03100586 26.11352539 C72.37100586 26.11352539 71.71100586 26.11352539 71.03100586 26.11352539 C69.40600586 24.73852539 69.40600586 24.73852539 68.03100586 23.11352539 C68.03100586 22.45352539 68.03100586 21.79352539 68.03100586 21.11352539 C67.37100586 21.11352539 66.71100586 21.11352539 66.03100586 21.11352539 C65.59788086 20.65977539 65.16475586 20.20602539 64.71850586 19.73852539 C63.05864487 17.92778137 63.05864487 17.92778137 60.40600586 17.11352539 C59.62225586 16.78352539 58.83850586 16.45352539 58.03100586 16.11352539 C57.53600586 14.62852539 57.53600586 14.62852539 57.03100586 13.11352539 C54.02253168 11.88832275 54.02253168 11.88832275 51.03100586 11.11352539 C51.03100586 10.45352539 51.03100586 9.79352539 51.03100586 9.11352539 C50.04100586 9.11352539 49.05100586 9.11352539 48.03100586 9.11352539 C48.03100586 8.45352539 48.03100586 7.79352539 48.03100586 7.11352539 C41.10100586 6.61852539 41.10100586 6.61852539 34.03100586 6.11352539 C34.03100586 5.45352539 34.03100586 4.79352539 34.03100586 4.11352539 C29.51015215 4.23165558 24.98952371 4.35589515 20.46899414 4.48583984 C18.93062933 4.52919465 17.39221623 4.57086934 15.85375977 4.61083984 C13.64446446 4.66852937 11.43541238 4.73222718 9.22631836 4.79711914 C8.53667999 4.81383163 7.84704163 4.83054413 7.13650513 4.84776306 C3.45986322 4.92159534 3.45986322 4.92159534 0.03100586 6.11352539 C-8.38399414 6.60852539 -8.38399414 6.60852539 -16.96899414 7.11352539 C-16.96899414 33.18352539 -16.96899414 59.25352539 -16.96899414 86.11352539 C-23.23899414 86.11352539 -29.50899414 86.11352539 -35.96899414 86.11352539 C-35.98881348 84.419375 -36.00863281 82.72522461 -36.02905273 80.97973633 C-36.09726037 75.33587062 -36.17406446 69.692164 -36.25652122 64.04848862 C-36.30613078 60.63205648 -36.35245864 57.21565012 -36.39086914 53.79907227 C-36.43534142 49.85684943 -36.49483859 45.91491713 -36.55493164 41.97290039 C-36.56648285 40.76615662 -36.57803406 39.55941284 -36.5899353 38.31610107 C-36.71957664 30.74565136 -37.49933886 23.54186456 -38.96899414 16.11352539 C-39.62899414 16.11352539 -40.28899414 16.11352539 -40.96899414 16.11352539 C-41.29899414 14.46352539 -41.62899414 12.81352539 -41.96899414 11.11352539 C-42.62899414 11.11352539 -43.28899414 11.11352539 -43.96899414 11.11352539 C-43.96899414 10.45352539 -43.96899414 9.79352539 -43.96899414 9.11352539 C-44.62899414 9.11352539 -45.28899414 9.11352539 -45.96899414 9.11352539 C-45.96899414 8.45352539 -45.96899414 7.79352539 -45.96899414 7.11352539 C-48.60899414 7.11352539 -51.24899414 7.11352539 -53.96899414 7.11352539 C-53.96899414 6.12352539 -53.96899414 5.13352539 -53.96899414 4.11352539 C-52.85862793 4.08846924 -51.74826172 4.06341309 -50.60424805 4.03759766 C-46.49296096 3.94357624 -42.38184491 3.84334282 -38.27075195 3.74121094 C-36.48986811 3.6978421 -34.70894216 3.65616846 -32.92797852 3.61621094 C-30.37120866 3.55855549 -27.81465116 3.49484769 -25.25805664 3.42993164 C-24.45904938 3.41321915 -23.66004211 3.39650665 -22.83682251 3.37928772 C-18.77093046 3.35959548 -18.77093046 3.35959548 -14.96899414 2.11352539 C-12.37755509 1.80307013 -9.78527682 1.60378627 -7.18383789 1.39477539 C-3.67030547 0.94861254 -4.26547789 0.12200573 0 0 Z " fill="#030303" transform="translate(103.968994140625,99.886474609375)"/>
<path d="M0 0 C6.27 0 12.54 0 19 0 C19 22.44 19 44.88 19 68 C21.31 68 23.62 68 26 68 C26 68.66 26 69.32 26 70 C43.82 70 61.64 70 80 70 C80 69.34 80 68.68 80 68 C81.32 68 82.64 68 84 68 C84 67.34 84 66.68 84 66 C87.72965139 63.96564469 89.66905042 63 94 63 C94 62.34 94 61.68 94 61 C94.66 61 95.32 61 96 61 C96.33 60.01 96.66 59.02 97 58 C98.32 58 99.64 58 101 58 C101.33 56.68 101.66 55.36 102 54 C103.32 53.67 104.64 53.34 106 53 C106.33 51.68 106.66 50.36 107 49 C107.66 49 108.32 49 109 49 C109 48.01 109 47.02 109 46 C109.66 46 110.32 46 111 46 C111 45.34 111 44.68 111 44 C111.66 44 112.32 44 113 44 C113.33 42.35 113.66 40.7 114 39 C114.66 39 115.32 39 116 39 C116 38.34 116 37.68 116 37 C116.66 37 117.32 37 118 37 C118.12375 36.278125 118.2475 35.55625 118.375 34.8125 C118.9904931 32.04278106 119.88444374 29.6029646 121 27 C121.66 27 122.32 27 123 27 C123.33 23.7 123.66 20.4 124 17 C124.66 17 125.32 17 126 17 C126 15.35 126 13.7 126 12 C126.66 12 127.32 12 128 12 C128 10.35 128 8.7 128 7 C128.66 7 129.32 7 130 7 C130 4.69 130 2.38 130 0 C135.61 0 141.22 0 147 0 C147 2.64 147 5.28 147 8 C146.34 8 145.68 8 145 8 C145.061875 8.639375 145.12375 9.27875 145.1875 9.9375 C144.92439224 14.23492674 143.47182579 17.97876168 142 22 C141.34 22 140.68 22 140 22 C140 22.66 140 23.32 140 24 C139.34 24 138.68 24 138 24 C137.814375 25.0828125 137.814375 25.0828125 137.625 26.1875 C137.0095069 28.95721894 136.11555626 31.3970354 135 34 C134.34 34 133.68 34 133 34 C132.67 35.65 132.34 37.3 132 39 C131.34 39 130.68 39 130 39 C129.938125 39.61875 129.87625 40.2375 129.8125 40.875 C129.544375 41.57625 129.27625 42.2775 129 43 C127.33333333 43.66666667 125.66666667 44.33333333 124 45 C123.11306697 47.04105639 123.11306697 47.04105639 123 49 C122.34 49 121.68 49 121 49 C120.67 50.32 120.34 51.64 120 53 C118.68 53.33 117.36 53.66 116 54 C116 54.66 116 55.32 116 56 C115.34 56 114.68 56 114 56 C114 56.66 114 57.32 114 58 C111.525 58.495 111.525 58.495 109 59 C109 59.66 109 60.32 109 61 C108.01 61 107.02 61 106 61 C106 61.66 106 62.32 106 63 C104.35 63.33 102.7 63.66 101 64 C101 64.66 101 65.32 101 66 C99.68 66 98.36 66 97 66 C97 66.66 97 67.32 97 68 C95.35 68 93.7 68 92 68 C92 68.66 92 69.32 92 70 C89.36 70.33 86.72 70.66 84 71 C84 71.66 84 72.32 84 73 C75.56203317 75.32885245 67.24116244 75.27499102 58.56665039 75.20581055 C56.17518568 75.18740523 53.78410677 75.18530247 51.39257812 75.18554688 C49.85937167 75.18063541 48.32616781 75.17480872 46.79296875 75.16796875 C46.08456345 75.16685593 45.37615814 75.1657431 44.64628601 75.16459656 C40.96612331 75.12945229 37.58504353 74.81583603 34 74 C30.39524885 73.7057346 26.79002533 73.49496979 23.1796875 73.28125 C20 73 20 73 17 72 C14.34393699 71.84653047 11.70904905 71.74282102 9.05078125 71.68359375 C7.89185616 71.6524221 7.89185616 71.6524221 6.70951843 71.62062073 C4.2439352 71.55528962 1.77824639 71.49631685 -0.6875 71.4375 C-2.36003691 71.39429913 -4.03256319 71.35068434 -5.70507812 71.30664062 C-9.8032775 71.1996251 -13.90158296 71.09831143 -18 71 C-18 70.67 -18 70.34 -18 70 C-16.02 70 -14.04 70 -12 70 C-12 69.34 -12 68.68 -12 68 C-11.34 68 -10.68 68 -10 68 C-10 67.34 -10 66.68 -10 66 C-9.01 66 -8.02 66 -7 66 C-6.34 64.35 -5.68 62.7 -5 61 C-4.34 61 -3.68 61 -3 61 C-2.855625 59.7625 -2.71125 58.525 -2.5625 57.25 C-2.31930146 55.1654411 -2.05533429 53.19912549 -1.49305725 51.17572021 C-0.9431977 48.74934777 -0.83955329 46.53523957 -0.79467773 44.04785156 C-0.77473251 43.06713684 -0.75478729 42.08642212 -0.73423767 41.07598877 C-0.70916893 39.4992337 -0.70916893 39.4992337 -0.68359375 37.890625 C-0.66281265 36.80867859 -0.64203156 35.72673218 -0.62062073 34.61199951 C-0.55527069 31.15806387 -0.49630771 27.70405263 -0.4375 24.25 C-0.39430096 21.90754429 -0.35068622 19.5650962 -0.30664062 17.22265625 C-0.19960413 11.48184818 -0.09829552 5.74096412 0 0 Z " fill="#0F0F0F" transform="translate(68,242)"/>
<path d="M0 0 C1.18851562 0.00902344 2.37703125 0.01804688 3.6015625 0.02734375 C4.51679688 0.03894531 5.43203125 0.05054688 6.375 0.0625 C6.045 1.7125 5.715 3.3625 5.375 5.0625 C4.715 5.0625 4.055 5.0625 3.375 5.0625 C3.375 6.0525 3.375 7.0425 3.375 8.0625 C2.715 8.0625 2.055 8.0625 1.375 8.0625 C1.375 9.3825 1.375 10.7025 1.375 12.0625 C0.715 12.0625 0.055 12.0625 -0.625 12.0625 C-0.769375 13.155625 -0.91375 14.24875 -1.0625 15.375 C-1.625 19.0625 -1.625 19.0625 -2.625 22.0625 C-2.70678114 23.76266844 -2.73249501 25.46586297 -2.72265625 27.16796875 C-2.71782227 28.64233398 -2.71782227 28.64233398 -2.71289062 30.14648438 C-2.70451172 31.17064453 -2.69613281 32.19480469 -2.6875 33.25 C-2.68298828 34.28576172 -2.67847656 35.32152344 -2.67382812 36.38867188 C-2.6620401 38.94667266 -2.64558515 41.50455733 -2.625 44.0625 C-1.965 44.0625 -1.305 44.0625 -0.625 44.0625 C1.375 47.0625 1.375 47.0625 1.375 51.0625 C2.035 51.0625 2.695 51.0625 3.375 51.0625 C3.705 52.7125 4.035 54.3625 4.375 56.0625 C5.035 56.0625 5.695 56.0625 6.375 56.0625 C6.375 56.7225 6.375 57.3825 6.375 58.0625 C7.035 58.0625 7.695 58.0625 8.375 58.0625 C8.375 58.7225 8.375 59.3825 8.375 60.0625 C10.025 60.3925 11.675 60.7225 13.375 61.0625 C13.375 61.7225 13.375 62.3825 13.375 63.0625 C14.426875 63.206875 15.47875 63.35125 16.5625 63.5 C20.375 64.0625 20.375 64.0625 22.5625 64.59375 C26.44990122 65.2416502 30.25475499 65.16785472 34.1875 65.125 C35.36989258 65.11823242 35.36989258 65.11823242 36.57617188 65.11132812 C38.50914761 65.09961312 40.44208393 65.08167998 42.375 65.0625 C42.375 64.4025 42.375 63.7425 42.375 63.0625 C43.365 63.0625 44.355 63.0625 45.375 63.0625 C45.375 62.4025 45.375 61.7425 45.375 61.0625 C46.32375 60.794375 47.2725 60.52625 48.25 60.25 C51.62767273 59.31263412 51.62767273 59.31263412 53.375 56.0625 C54.035 56.0625 54.695 56.0625 55.375 56.0625 C55.375 55.4025 55.375 54.7425 55.375 54.0625 C56.695 53.7325 58.015 53.4025 59.375 53.0625 C59.705 51.7425 60.035 50.4225 60.375 49.0625 C61.035 49.0625 61.695 49.0625 62.375 49.0625 C63.035 47.4125 63.695 45.7625 64.375 44.0625 C65.035 44.0625 65.695 44.0625 66.375 44.0625 C66.705 42.4125 67.035 40.7625 67.375 39.0625 C68.035 39.0625 68.695 39.0625 69.375 39.0625 C69.478125 38.381875 69.58125 37.70125 69.6875 37 C70.51211452 33.47664706 71.95111424 30.3849001 73.375 27.0625 C74.06640522 24.28361387 74.06640522 24.28361387 74.375 22.0625 C75.035 22.0625 75.695 22.0625 76.375 22.0625 C76.44847656 21.06283203 76.44847656 21.06283203 76.5234375 20.04296875 C77.07164269 13.28492201 78.05052143 6.71061086 79.375 0.0625 C80.695 0.0625 82.015 0.0625 83.375 0.0625 C82.65772968 6.46508139 81.54632555 12.74077896 80.3125 19.0625 C80.12623047 20.02800781 79.93996094 20.99351562 79.74804688 21.98828125 C79.29268657 24.34681409 78.83495713 26.70486011 78.375 29.0625 C77.715 29.0625 77.055 29.0625 76.375 29.0625 C76.375 30.0525 76.375 31.0425 76.375 32.0625 C75.715 32.0625 75.055 32.0625 74.375 32.0625 C74.189375 33.6403125 74.189375 33.6403125 74 35.25 C73.46359218 38.52208771 72.73619965 41.06786076 71.375 44.0625 C70.715 44.0625 70.055 44.0625 69.375 44.0625 C69.375 44.7225 69.375 45.3825 69.375 46.0625 C68.715 46.0625 68.055 46.0625 67.375 46.0625 C67.045 47.7125 66.715 49.3625 66.375 51.0625 C65.715 51.0625 65.055 51.0625 64.375 51.0625 C64.375 51.7225 64.375 52.3825 64.375 53.0625 C63.715 53.0625 63.055 53.0625 62.375 53.0625 C62.375 54.0525 62.375 55.0425 62.375 56.0625 C61 57.75 61 57.75 59.375 59.0625 C58.715 59.0625 58.055 59.0625 57.375 59.0625 C57.375 59.7225 57.375 60.3825 57.375 61.0625 C56.715 61.0625 56.055 61.0625 55.375 61.0625 C55.375 61.7225 55.375 62.3825 55.375 63.0625 C53.725 63.3925 52.075 63.7225 50.375 64.0625 C49.88 66.0425 49.88 66.0425 49.375 68.0625 C48.055 68.0625 46.735 68.0625 45.375 68.0625 C45.375 68.7225 45.375 69.3825 45.375 70.0625 C40.425 70.5575 40.425 70.5575 35.375 71.0625 C35.375 71.7225 35.375 72.3825 35.375 73.0625 C31.63381444 74.78828232 28.74483981 75.30174962 24.63671875 75.2578125 C23.57001953 75.25136719 22.50332031 75.24492187 21.40429688 75.23828125 C19.75010742 75.21314453 19.75010742 75.21314453 18.0625 75.1875 C16.94037109 75.17847656 15.81824219 75.16945313 14.66210938 75.16015625 C11.89952091 75.13664486 9.13737068 75.10378155 6.375 75.0625 C6.375 74.4025 6.375 73.7425 6.375 73.0625 C4.065 73.0625 1.755 73.0625 -0.625 73.0625 C-0.625 72.4025 -0.625 71.7425 -0.625 71.0625 C-2.275 70.7325 -3.925 70.4025 -5.625 70.0625 C-5.625 69.4025 -5.625 68.7425 -5.625 68.0625 C-6.285 68.0625 -6.945 68.0625 -7.625 68.0625 C-7.955 66.7425 -8.285 65.4225 -8.625 64.0625 C-9.945 63.7325 -11.265 63.4025 -12.625 63.0625 C-12.955 61.4125 -13.285 59.7625 -13.625 58.0625 C-14.285 58.0625 -14.945 58.0625 -15.625 58.0625 C-15.625 56.7425 -15.625 55.4225 -15.625 54.0625 C-16.285 54.0625 -16.945 54.0625 -17.625 54.0625 C-20.52402487 47.50518185 -20.95306185 41.0641912 -21 34 C-21.01353516 33.16178711 -21.02707031 32.32357422 -21.04101562 31.45996094 C-20.99912362 25.51362318 -19.81614466 20.58029139 -17.625 15.0625 C-16.965 15.0625 -16.305 15.0625 -15.625 15.0625 C-15.625 14.0725 -15.625 13.0825 -15.625 12.0625 C-14.965 12.0625 -14.305 12.0625 -13.625 12.0625 C-13.295 10.4125 -12.965 8.7625 -12.625 7.0625 C-11.965 7.0625 -11.305 7.0625 -10.625 7.0625 C-10.625 5.7425 -10.625 4.4225 -10.625 3.0625 C-9.965 3.0625 -9.305 3.0625 -8.625 3.0625 C-8.625 2.4025 -8.625 1.7425 -8.625 1.0625 C-5.74084117 -0.37957941 -3.20778472 -0.03144887 0 0 Z " fill="#0C0C0C" transform="translate(320.625,241.9375)"/>
<path d="M0 0 C6.27 0 12.54 0 19 0 C19.4125 1.464375 19.825 2.92875 20.25 4.4375 C21.27218177 7.86396846 22.41646486 11.07804584 23.9375 14.3125 C26.12618985 19.01443826 27.51888854 23.86956671 28.984375 28.8359375 C30.14259273 32.4442312 31.59862953 35.79720635 33.265625 39.1953125 C34 41 34 41 34 44 C34.66 44 35.32 44 36 44 C36.50559908 45.43554025 37.0042749 46.8735202 37.5 48.3125 C37.7784375 49.11300781 38.056875 49.91351563 38.34375 50.73828125 C39 53 39 53 39 56 C39.66 56 40.32 56 41 56 C41 56.66 41 57.32 41 58 C41.66 58 42.32 58 43 58 C43 58.99 43 59.98 43 61 C43.66 61 44.32 61 45 61 C46.625 62.375 46.625 62.375 48 64 C48 64.66 48 65.32 48 66 C50.31 66.66 52.62 67.32 55 68 C55 68.66 55 69.32 55 70 C56.98 70.495 56.98 70.495 59 71 C36.89 71 14.78 71 -8 71 C-8 70.67 -8 70.34 -8 70 C-5.36 70 -2.72 70 0 70 C0 69.34 0 68.68 0 68 C0.95712891 67.83564453 0.95712891 67.83564453 1.93359375 67.66796875 C2.75988281 67.50941406 3.58617187 67.35085938 4.4375 67.1875 C5.26121094 67.03667969 6.08492188 66.88585937 6.93359375 66.73046875 C7.95646484 66.36888672 7.95646484 66.36888672 9 66 C9.495 64.515 9.495 64.515 10 63 C11.32 63 12.64 63 14 63 C14 54.09 14 45.18 14 36 C13.34 36 12.68 36 12 36 C8.55580866 26.58997722 8.55580866 26.58997722 9 22 C8.34 22 7.68 22 7 22 C7 20.35 7 18.7 7 17 C6.34 17 5.68 17 5 17 C4.49440092 15.56445975 3.9957251 14.1264798 3.5 12.6875 C3.2215625 11.88699219 2.943125 11.08648437 2.65625 10.26171875 C2 8 2 8 2 5 C1.34 5 0.68 5 0 5 C0 3.35 0 1.7 0 0 Z " fill="#090909" transform="translate(417,242)"/>
<path d="M0 0 C1.32 0 2.64 0 4 0 C4.15855469 0.67804688 4.31710937 1.35609375 4.48046875 2.0546875 C5.70563039 6.94179634 7.04108498 11.36729806 9.4375 15.8125 C13.41750775 23.31559618 15.4400676 31.68556032 17 40 C17.66 40 18.32 40 19 40 C19 40.99 19 41.98 19 43 C19.66 43 20.32 43 21 43 C21.495 47.95 21.495 47.95 22 53 C22.66 53 23.32 53 24 53 C24 54.32 24 55.64 24 57 C24.66 57 25.32 57 26 57 C26.508783 58.55966218 27.00663469 60.12289241 27.5 61.6875 C27.7784375 62.55761719 28.056875 63.42773438 28.34375 64.32421875 C28.99850805 66.99391677 29.11831495 69.26396684 29 72 C29.66 72 30.32 72 31 72 C31.83764268 73.95649397 32.66999059 75.91525556 33.5 77.875 C34.19609375 79.51082031 34.19609375 79.51082031 34.90625 81.1796875 C36 84 36 84 36 86 C29.73 86 23.46 86 17 86 C17 85.34 17 84.68 17 84 C16.34 84 15.68 84 15 84 C15 82.35 15 80.7 15 79 C14.34 79 13.68 79 13 79 C11.8422494 75.52674819 11.93133348 72.63932552 12 69 C11.34 69 10.68 69 10 69 C9.49440092 67.56445975 8.9957251 66.1264798 8.5 64.6875 C8.2215625 63.88699219 7.943125 63.08648437 7.65625 62.26171875 C7 60 7 60 7 57 C6.34 57 5.68 57 5 57 C4.15665671 54.77417611 3.32521449 52.54503974 2.5 50.3125 C2.26152344 49.68666016 2.02304687 49.06082031 1.77734375 48.41601562 C0.4587275 44.81807701 -0.29329235 41.83479747 0 38 C-0.66 38 -1.32 38 -2 38 C-2.50559908 36.56445975 -3.0042749 35.1264798 -3.5 33.6875 C-3.7784375 32.88699219 -4.056875 32.08648437 -4.34375 31.26171875 C-5 29 -5 29 -5 26 C-5.66 26 -6.32 26 -7 26 C-7.12375 27.2375 -7.2475 28.475 -7.375 29.75 C-7.75746305 32.8762197 -8.30549523 35.28879237 -10 38 C-10.66 38 -11.32 38 -12 38 C-12.11472656 39.00933594 -12.22945313 40.01867187 -12.34765625 41.05859375 C-12.99690092 44.98127564 -14.04953719 48.34341864 -15.4375 52.0625 C-17.02691378 56.35628946 -18.57590488 60.64823025 -20 65 C-20.66 65 -21.32 65 -22 65 C-22 66.32 -22 67.64 -22 69 C-22.66 69 -23.32 69 -24 69 C-24.0825 70.155 -24.165 71.31 -24.25 72.5 C-24.81486683 77.22127498 -26.66168853 80.9106739 -29 85 C-30.18771723 81.57056481 -29.80226223 79.62215325 -28.5625 76.25 C-28.27503906 75.45078125 -27.98757813 74.6515625 -27.69140625 73.828125 C-27.46324219 73.22484375 -27.23507812 72.6215625 -27 72 C-26.34 72 -25.68 72 -25 72 C-24.67 68.7 -24.34 65.4 -24 62 C-23.34 62 -22.68 62 -22 62 C-22 61.01 -22 60.02 -22 59 C-21.34 59 -20.68 59 -20 59 C-19.92652344 58.11248047 -19.92652344 58.11248047 -19.8515625 57.20703125 C-19.43543133 52.80895528 -18.95034405 49.03071103 -17 45 C-16.34 45 -15.68 45 -15 45 C-14.87625 43.989375 -14.7525 42.97875 -14.625 41.9375 C-14.01914665 38.12062388 -13.12806088 34.68499888 -12 31 C-11.34 31 -10.68 31 -10 31 C-9.67 27.7 -9.34 24.4 -9 21 C-8.34 21 -7.68 21 -7 21 C-6.87625 20.4225 -6.7525 19.845 -6.625 19.25 C-6 17 -6 17 -5.03125 15.15625 C-3.92992607 12.85348178 -3.38885339 10.74585932 -2.875 8.25 C-2.70742188 7.45078125 -2.53984375 6.6515625 -2.3671875 5.828125 C-2.24601562 5.22484375 -2.12484375 4.6215625 -2 4 C-1.34 4 -0.68 4 0 4 C0 2.68 0 1.36 0 0 Z " fill="#0D0D0D" transform="translate(378,100)"/>
<path d="M0 0 C1.77206192 0.00015919 3.54412846 0.00585754 5.31616211 0.01586914 C6.24698105 0.01728409 7.17779999 0.01869904 8.13682556 0.02015686 C11.12241777 0.02577367 14.10793615 0.03832899 17.09350586 0.05102539 C19.11238499 0.05603823 21.13126529 0.06060151 23.15014648 0.06469727 C28.11046158 0.07574856 33.07072118 0.09302444 38.03100586 0.11352539 C38.03100586 0.77352539 38.03100586 1.43352539 38.03100586 2.11352539 C40.67100586 2.11352539 43.31100586 2.11352539 46.03100586 2.11352539 C46.03100586 2.77352539 46.03100586 3.43352539 46.03100586 4.11352539 C47.68100586 4.11352539 49.33100586 4.11352539 51.03100586 4.11352539 C51.03100586 4.77352539 51.03100586 5.43352539 51.03100586 6.11352539 C52.70163086 6.08258789 52.70163086 6.08258789 54.40600586 6.05102539 C58.03100586 6.11352539 58.03100586 6.11352539 60.03100586 7.11352539 C60.03100586 7.77352539 60.03100586 8.43352539 60.03100586 9.11352539 C61.68100586 9.11352539 63.33100586 9.11352539 65.03100586 9.11352539 C65.03100586 9.77352539 65.03100586 10.43352539 65.03100586 11.11352539 C66.68100586 11.44352539 68.33100586 11.77352539 70.03100586 12.11352539 C70.03100586 12.77352539 70.03100586 13.43352539 70.03100586 14.11352539 C71.02100586 14.11352539 72.01100586 14.11352539 73.03100586 14.11352539 C73.03100586 14.77352539 73.03100586 15.43352539 73.03100586 16.11352539 C73.62913086 16.21665039 74.22725586 16.31977539 74.84350586 16.42602539 C77.40496752 17.2310562 78.22208188 18.15988749 80.03100586 20.11352539 C80.91788086 20.79415039 81.80475586 21.47477539 82.71850586 22.17602539 C83.86319336 23.13508789 83.86319336 23.13508789 85.03100586 24.11352539 C85.03100586 24.77352539 85.03100586 25.43352539 85.03100586 26.11352539 C85.69100586 26.11352539 86.35100586 26.11352539 87.03100586 26.11352539 C89.65600586 28.48852539 89.65600586 28.48852539 92.03100586 31.11352539 C92.03100586 31.77352539 92.03100586 32.43352539 92.03100586 33.11352539 C92.69100586 33.11352539 93.35100586 33.11352539 94.03100586 33.11352539 C94.03100586 34.10352539 94.03100586 35.09352539 94.03100586 36.11352539 C94.69100586 36.11352539 95.35100586 36.11352539 96.03100586 36.11352539 C96.15475586 36.75290039 96.27850586 37.39227539 96.40600586 38.05102539 C96.71538086 39.07196289 96.71538086 39.07196289 97.03100586 40.11352539 C97.69100586 40.44352539 98.35100586 40.77352539 99.03100586 41.11352539 C99.88256836 43.17993164 99.88256836 43.17993164 100.65600586 45.67602539 C100.91639648 46.50231445 101.17678711 47.32860352 101.44506836 48.17993164 C101.73510742 49.13706055 101.73510742 49.13706055 102.03100586 50.11352539 C102.69100586 50.11352539 103.35100586 50.11352539 104.03100586 50.11352539 C104.03100586 51.76352539 104.03100586 53.41352539 104.03100586 55.11352539 C104.69100586 55.11352539 105.35100586 55.11352539 106.03100586 55.11352539 C106.52600586 59.56852539 106.52600586 59.56852539 107.03100586 64.11352539 C107.69100586 64.11352539 108.35100586 64.11352539 109.03100586 64.11352539 C109.03100586 65.76352539 109.03100586 67.41352539 109.03100586 69.11352539 C109.69100586 69.11352539 110.35100586 69.11352539 111.03100586 69.11352539 C111.03100586 70.76352539 111.03100586 72.41352539 111.03100586 74.11352539 C111.69100586 74.11352539 112.35100586 74.11352539 113.03100586 74.11352539 C113.36100586 78.07352539 113.69100586 82.03352539 114.03100586 86.11352539 C107.76100586 86.11352539 101.49100586 86.11352539 95.03100586 86.11352539 C94.09350586 78.73852539 94.09350586 78.73852539 93.8046875 76.4206543 C93.34384131 72.64774201 93.34384131 72.64774201 92.03100586 69.11352539 C91.99078195 66.78053879 91.98780339 64.44645874 92.03100586 62.11352539 C91.37100586 62.11352539 90.71100586 62.11352539 90.03100586 62.11352539 C89.52540678 60.67798514 89.02673096 59.24000519 88.53100586 57.80102539 C88.25256836 57.00051758 87.97413086 56.20000977 87.68725586 55.37524414 C87.03100586 53.11352539 87.03100586 53.11352539 87.03100586 50.11352539 C86.37100586 50.11352539 85.71100586 50.11352539 85.03100586 50.11352539 C84.53600586 45.65852539 84.53600586 45.65852539 84.03100586 41.11352539 C83.37100586 41.11352539 82.71100586 41.11352539 82.03100586 41.11352539 C82.03100586 40.12352539 82.03100586 39.13352539 82.03100586 38.11352539 C81.37100586 38.11352539 80.71100586 38.11352539 80.03100586 38.11352539 C80.03100586 37.45352539 80.03100586 36.79352539 80.03100586 36.11352539 C78.54600586 35.61852539 78.54600586 35.61852539 77.03100586 35.11352539 C77.03100586 33.79352539 77.03100586 32.47352539 77.03100586 31.11352539 C76.37100586 31.11352539 75.71100586 31.11352539 75.03100586 31.11352539 C75.03100586 30.12352539 75.03100586 29.13352539 75.03100586 28.11352539 C74.37100586 28.11352539 73.71100586 28.11352539 73.03100586 28.11352539 C73.03100586 27.45352539 73.03100586 26.79352539 73.03100586 26.11352539 C72.37100586 26.11352539 71.71100586 26.11352539 71.03100586 26.11352539 C69.40600586 24.73852539 69.40600586 24.73852539 68.03100586 23.11352539 C68.03100586 22.45352539 68.03100586 21.79352539 68.03100586 21.11352539 C67.37100586 21.11352539 66.71100586 21.11352539 66.03100586 21.11352539 C65.59788086 20.65977539 65.16475586 20.20602539 64.71850586 19.73852539 C63.05864487 17.92778137 63.05864487 17.92778137 60.40600586 17.11352539 C59.62225586 16.78352539 58.83850586 16.45352539 58.03100586 16.11352539 C57.53600586 14.62852539 57.53600586 14.62852539 57.03100586 13.11352539 C54.02253168 11.88832275 54.02253168 11.88832275 51.03100586 11.11352539 C51.03100586 10.45352539 51.03100586 9.79352539 51.03100586 9.11352539 C50.04100586 9.11352539 49.05100586 9.11352539 48.03100586 9.11352539 C48.03100586 8.45352539 48.03100586 7.79352539 48.03100586 7.11352539 C41.10100586 6.61852539 41.10100586 6.61852539 34.03100586 6.11352539 C34.03100586 5.45352539 34.03100586 4.79352539 34.03100586 4.11352539 C29.51015215 4.23165558 24.98952371 4.35589515 20.46899414 4.48583984 C18.93062933 4.52919465 17.39221623 4.57086934 15.85375977 4.61083984 C13.64446446 4.66852937 11.43541238 4.73222718 9.22631836 4.79711914 C8.53667999 4.81383163 7.84704163 4.83054413 7.13650513 4.84776306 C3.45986322 4.92159534 3.45986322 4.92159534 0.03100586 6.11352539 C-1.67602149 6.18348553 -3.38567417 6.19792693 -5.09399414 6.17602539 C-6.00407227 6.16700195 -6.91415039 6.15797852 -7.85180664 6.14868164 C-8.55047852 6.13708008 -9.24915039 6.12547852 -9.96899414 6.11352539 C-8.97899414 5.45352539 -7.98899414 4.79352539 -6.96899414 4.11352539 C-10.26899414 4.11352539 -13.56899414 4.11352539 -16.96899414 4.11352539 C-14.47500249 1.61953374 -13.35456841 1.78420451 -9.90649414 1.55102539 C-6.06468828 1.28094148 -3.77731182 0.10804269 0 0 Z " fill="#131313" transform="translate(103.968994140625,99.886474609375)"/>
<path d="M0 0 C5.61 0 11.22 0 17 0 C17 2.64 17 5.28 17 8 C16.34 8 15.68 8 15 8 C15.061875 8.639375 15.12375 9.27875 15.1875 9.9375 C14.92439224 14.23492674 13.47182579 17.97876168 12 22 C11.34 22 10.68 22 10 22 C10 22.66 10 23.32 10 24 C9.34 24 8.68 24 8 24 C7.814375 25.0828125 7.814375 25.0828125 7.625 26.1875 C7.0095069 28.95721894 6.11555626 31.3970354 5 34 C4.34 34 3.68 34 3 34 C2.67 35.65 2.34 37.3 2 39 C1.34 39 0.68 39 0 39 C-0.0928125 39.928125 -0.0928125 39.928125 -0.1875 40.875 C-0.455625 41.57625 -0.72375 42.2775 -1 43 C-2.66666667 43.66666667 -4.33333333 44.33333333 -6 45 C-6.88693303 47.04105639 -6.88693303 47.04105639 -7 49 C-7.66 49 -8.32 49 -9 49 C-9.33 50.32 -9.66 51.64 -10 53 C-11.32 53.33 -12.64 53.66 -14 54 C-14 54.66 -14 55.32 -14 56 C-14.66 56 -15.32 56 -16 56 C-16 56.66 -16 57.32 -16 58 C-17.65 58.33 -19.3 58.66 -21 59 C-21 59.66 -21 60.32 -21 61 C-21.99 61 -22.98 61 -24 61 C-24 61.66 -24 62.32 -24 63 C-25.65 63.33 -27.3 63.66 -29 64 C-29 64.66 -29 65.32 -29 66 C-30.32 66 -31.64 66 -33 66 C-33 66.66 -33 67.32 -33 68 C-34.65 68 -36.3 68 -38 68 C-38 68.66 -38 69.32 -38 70 C-40.64 70.33 -43.28 70.66 -46 71 C-46 71.66 -46 72.32 -46 73 C-54.43796683 75.32885245 -62.75883756 75.27499102 -71.43334961 75.20581055 C-73.82481432 75.18740523 -76.21589323 75.18530247 -78.60742188 75.18554688 C-80.14062833 75.18063541 -81.67383219 75.17480872 -83.20703125 75.16796875 C-83.91543655 75.16685593 -84.62384186 75.1657431 -85.35371399 75.16459656 C-89.02340078 75.12955233 -92.43047655 74.86802844 -96 74 C-94 71 -94 71 -92.08908081 70.60127258 C-91.31186676 70.59016953 -90.53465271 70.57906647 -89.73388672 70.56762695 C-88.85312469 70.54783279 -87.97236267 70.52803864 -87.06491089 70.50764465 C-86.11278717 70.50125473 -85.16066345 70.49486481 -84.1796875 70.48828125 C-83.20589142 70.47033005 -82.23209534 70.45237885 -81.22879028 70.43388367 C-78.11090458 70.37959368 -74.99317355 70.34582509 -71.875 70.3125 C-69.7643013 70.27934343 -67.65362306 70.24485534 -65.54296875 70.20898438 C-60.36211788 70.12385693 -55.18124743 70.05558664 -50 70 C-50 69.34 -50 68.68 -50 68 C-48.68 68 -47.36 68 -46 68 C-46 67.34 -46 66.68 -46 66 C-42.27034861 63.96564469 -40.33094958 63 -36 63 C-36 62.34 -36 61.68 -36 61 C-35.34 61 -34.68 61 -34 61 C-33.67 60.01 -33.34 59.02 -33 58 C-31.68 58 -30.36 58 -29 58 C-28.67 56.68 -28.34 55.36 -28 54 C-26.68 53.67 -25.36 53.34 -24 53 C-23.67 51.68 -23.34 50.36 -23 49 C-22.34 49 -21.68 49 -21 49 C-21 48.01 -21 47.02 -21 46 C-20.34 46 -19.68 46 -19 46 C-19 45.34 -19 44.68 -19 44 C-18.34 44 -17.68 44 -17 44 C-16.67 42.35 -16.34 40.7 -16 39 C-15.34 39 -14.68 39 -14 39 C-14 38.34 -14 37.68 -14 37 C-13.34 37 -12.68 37 -12 37 C-11.87625 36.278125 -11.7525 35.55625 -11.625 34.8125 C-11.0095069 32.04278106 -10.11555626 29.6029646 -9 27 C-8.34 27 -7.68 27 -7 27 C-6.67 23.7 -6.34 20.4 -6 17 C-5.34 17 -4.68 17 -4 17 C-4 15.35 -4 13.7 -4 12 C-3.34 12 -2.68 12 -2 12 C-2 10.35 -2 8.7 -2 7 C-1.34 7 -0.68 7 0 7 C0 4.69 0 2.38 0 0 Z " fill="#0E0E0E" transform="translate(198,242)"/>
<path d="M0 0 C1.32 0 2.64 0 4 0 C4 46.53 4 93.06 4 141 C2.68 141 1.36 141 0 141 C0 94.47 0 47.94 0 0 Z " fill="#929292" transform="translate(259,242)"/>
<path d="M0 0 C3.4375 1.25 3.4375 1.25 6 3 C6.875 5.1875 6.875 5.1875 7 7 C7.66 7 8.32 7 9 7 C9 10.3 9 13.6 9 17 C8.34 17 7.68 17 7 17 C6.67 18.65 6.34 20.3 6 22 C4.68 22 3.36 22 2 22 C2 22.66 2 23.32 2 24 C-1.3 24 -4.6 24 -8 24 C-8 23.34 -8 22.68 -8 22 C-8.598125 21.9175 -9.19625 21.835 -9.8125 21.75 C-12.70156 20.75946514 -13.43409694 19.59797552 -15 17 C-15.29296875 14.421875 -15.29296875 14.421875 -15.1875 11.75 C-15.16042969 10.85796875 -15.13335937 9.9659375 -15.10546875 9.046875 C-15.07066406 8.37140625 -15.03585937 7.6959375 -15 7 C-14.34 7 -13.68 7 -13 7 C-13 5.68 -13 4.36 -13 3 C-12.01 3 -11.02 3 -10 3 C-10 2.34 -10 1.68 -10 1 C-6.79963835 -0.60018083 -3.48088105 -0.36164998 0 0 Z " fill="#F1F1F1" transform="translate(354,201)"/>
<path d="M0 0 C0 0.66 0 1.32 0 2 C1.32 2 2.64 2 4 2 C4 6.62 4 11.24 4 16 C3.34 16 2.68 16 2 16 C2 16.66 2 17.32 2 18 C0.35 18.33 -1.3 18.66 -3 19 C-3 19.66 -3 20.32 -3 21 C-9.10849414 21.37398944 -13.64285578 21.1250008 -19 18 C-20.14063571 14.99763705 -20.13451195 12.06150465 -20.125 8.875 C-20.12757813 8.00617188 -20.13015625 7.13734375 -20.1328125 6.2421875 C-20 4 -20 4 -19 2 C-18.34 2 -17.68 2 -17 2 C-17 1.34 -17 0.68 -17 0 C-11.14880182 -2.83694457 -5.85119818 -2.83694457 0 0 Z " fill="#EDEDED" transform="translate(201,204)"/>
<path d="M0 0 C2.64 0 5.28 0 8 0 C8 0.66 8 1.32 8 2 C8.66 2 9.32 2 10 2 C9.98839844 2.61488281 9.97679687 3.22976563 9.96484375 3.86328125 C9.95582031 4.67152344 9.94679688 5.47976563 9.9375 6.3125 C9.92589844 7.11300781 9.91429687 7.91351563 9.90234375 8.73828125 C9.90342145 11.16861334 9.90342145 11.16861334 11 14 C8.525 13.505 8.525 13.505 6 13 C6 12.34 6 11.68 6 11 C5.01 11 4.02 11 3 11 C3 12.65 3 14.3 3 16 C1.68 16 0.36 16 -1 16 C-1 15.34 -1 14.68 -1 14 C-1.66 14 -2.32 14 -3 14 C-2.67 14.99 -2.34 15.98 -2 17 C-3 18 -3 18 -5.50390625 18.09765625 C-6.51324219 18.08605469 -7.52257812 18.07445312 -8.5625 18.0625 C-9.57441406 18.05347656 -10.58632813 18.04445313 -11.62890625 18.03515625 C-12.41136719 18.02355469 -13.19382812 18.01195312 -14 18 C-14 16.35 -14 14.7 -14 13 C-14.66 13 -15.32 13 -16 13 C-16 9.7 -16 6.4 -16 3 C-12.78548731 1.39274365 -9.56387464 1.94251815 -6 2 C-6.33 3.32 -6.66 4.64 -7 6 C-8.65 6 -10.3 6 -12 6 C-12 6.66 -12 7.32 -12 8 C-9.36 7.67 -6.72 7.34 -4 7 C-3.67 5.35 -3.34 3.7 -3 2 C-2.01 2 -1.02 2 0 2 C0 1.34 0 0.68 0 0 Z " fill="#EAEAEA" transform="translate(307,403)"/>
<path d="M0 0 C0 0.66 0 1.32 0 2 C0.66 2 1.32 2 2 2 C2 2.66 2 3.32 2 4 C2.66 4 3.32 4 4 4 C4 5.98 4 7.96 4 10 C4.66 10 5.32 10 6 10 C6.33 8.35 6.66 6.7 7 5 C9.31 5 11.62 5 14 5 C14 5.66 14 6.32 14 7 C14.99 7 15.98 7 17 7 C17 9.31 17 11.62 17 14 C16.01 14.33 15.02 14.66 14 15 C14.33 16.98 14.66 18.96 15 21 C14.67 20.34 14.34 19.68 14 19 C13.34 19 12.68 19 12 19 C12 18.01 12 17.02 12 16 C9.69 16.33 7.38 16.66 5 17 C4.67 15.35 4.34 13.7 4 12 C3.01 12.66 2.02 13.32 1 14 C-1.375 14.30078125 -1.375 14.30078125 -4 14.3125 C-5.299375 14.33763672 -5.299375 14.33763672 -6.625 14.36328125 C-9 14 -9 14 -10.80078125 12.7109375 C-12.72772947 9.96174101 -12.18365692 7.2446055 -12 4 C-11.34 4 -10.68 4 -10 4 C-10 3.01 -10 2.02 -10 1 C-6.78548731 -0.60725635 -3.56387464 -0.05748185 0 0 Z " fill="#BEBEBE" transform="translate(155,388)"/>
<path d="M0 0 C11.96670666 -0.60437912 11.96670666 -0.60437912 16.3125 1.9375 C18.58378866 6.05946831 18.45125218 9.39722778 18 14 C16.68 14.33 15.36 14.66 14 15 C14 16.32 14 17.64 14 19 C14.66 19 15.32 19 16 19 C16 19.99 16 20.98 16 22 C16.66 22 17.32 22 18 22 C18 22.66 18 23.32 18 24 C16.68 24 15.36 24 14 24 C11 19.92857143 11 19.92857143 11 17 C8.03 17 5.06 17 2 17 C2 19.31 2 21.62 2 24 C1.34 24 0.68 24 0 24 C0 16.08 0 8.16 0 0 Z " fill="#535353" transform="translate(221,201)"/>
<path d="M0 0 C0.66 0 1.32 0 2 0 C2 25.41 2 50.82 2 77 C-4.27 77 -10.54 77 -17 77 C-17.33 56.54 -17.66 36.08 -18 15 C-17.34 15 -16.68 15 -16 15 C-15.02296822 28.19929182 -14.87863548 41.33131189 -14.9375 54.5625 C-14.9425312 56.55663949 -14.94709121 58.55078022 -14.95117188 60.54492188 C-14.96203499 65.36331284 -14.97920778 70.18164207 -15 75 C-10.05 75 -5.1 75 0 75 C0 50.25 0 25.5 0 0 Z " fill="#505050" transform="translate(85,109)"/>
<path d="M0 0 C1.32 0 2.64 0 4 0 C3.28272968 6.40258139 2.17132555 12.67827896 0.9375 19 C0.75123047 19.96550781 0.56496094 20.93101562 0.37304688 21.92578125 C-0.08231343 24.28431409 -0.54004287 26.64236011 -1 29 C-1.66 29 -2.32 29 -3 29 C-3 29.99 -3 30.98 -3 32 C-3.66 32 -4.32 32 -5 32 C-5.12375 33.051875 -5.2475 34.10375 -5.375 35.1875 C-5.91140782 38.45958771 -6.63880035 41.00536076 -8 44 C-8.66 44 -9.32 44 -10 44 C-10 44.66 -10 45.32 -10 46 C-10.66 46 -11.32 46 -12 46 C-12.495 48.475 -12.495 48.475 -13 51 C-13.66 51 -14.32 51 -15 51 C-15 51.66 -15 52.32 -15 53 C-15.66 53 -16.32 53 -17 53 C-17 53.99 -17 54.98 -17 56 C-18.375 57.6875 -18.375 57.6875 -20 59 C-20.66 59 -21.32 59 -22 59 C-22 59.66 -22 60.32 -22 61 C-22.66 61 -23.32 61 -24 61 C-24 61.66 -24 62.32 -24 63 C-24.99 63 -25.98 63 -27 63 C-27.625 61.1875 -27.625 61.1875 -28 59 C-27.34 58.01 -26.68 57.02 -26 56 C-25.34 56 -24.68 56 -24 56 C-24 55.34 -24 54.68 -24 54 C-22.02 53.505 -22.02 53.505 -20 53 C-19.67 51.68 -19.34 50.36 -19 49 C-18.34 49 -17.68 49 -17 49 C-16.34 47.35 -15.68 45.7 -15 44 C-14.34 44 -13.68 44 -13 44 C-12.67 42.35 -12.34 40.7 -12 39 C-11.34 39 -10.68 39 -10 39 C-9.896875 38.319375 -9.79375 37.63875 -9.6875 36.9375 C-8.86288548 33.41414706 -7.42388576 30.3224001 -6 27 C-5.30859478 24.22111387 -5.30859478 24.22111387 -5 22 C-4.34 22 -3.68 22 -3 22 C-2.95101563 21.33355469 -2.90203125 20.66710937 -2.8515625 19.98046875 C-2.30335731 13.22242201 -1.32447857 6.64811086 0 0 Z " fill="#292929" transform="translate(400,242)"/>
<path d="M0 0 C1.32 0 2.64 0 4 0 C4.33 1.65 4.66 3.3 5 5 C5.66 5 6.32 5 7 5 C7 5.66 7 6.32 7 7 C7.66 7 8.32 7 9 7 C10.625 8.3125 10.625 8.3125 12 10 C12 10.99 12 11.98 12 13 C12.66 13 13.32 13 14 13 C14.33 14.32 14.66 15.64 15 17 C15.66 17 16.32 17 17 17 C17 11.39 17 5.78 17 0 C18.32 0 19.64 0 21 0 C21 7.92 21 15.84 21 24 C19.68 24 18.36 24 17 24 C17 23.34 17 22.68 17 22 C16.01 21.67 15.02 21.34 14 21 C12.8125 17.9375 12.8125 17.9375 12 15 C11.34 15 10.68 15 10 15 C7.70351351 12.4385343 7 11.52032428 7 8 C6.34 8 5.68 8 5 8 C4.67 13.28 4.34 18.56 4 24 C2.68 24 1.36 24 0 24 C0 16.08 0 8.16 0 0 Z " fill="#777777" transform="translate(378,201)"/>
<path d="M0 0 C1.32 0 2.64 0 4 0 C5.17076699 3.98060777 6.25749403 7.91621717 7 12 C7.66 12 8.32 12 9 12 C9 12.99 9 13.98 9 15 C9.66 15 10.32 15 11 15 C11.33 17.97 11.66 20.94 12 24 C11.67 23.34 11.34 22.68 11 22 C10.34 22 9.68 22 9 22 C9 21.01 9 20.02 9 19 C4.38 19 -0.24 19 -5 19 C-5.33 20.65 -5.66 22.3 -6 24 C-7.32 24 -8.64 24 -10 24 C-10 22.68 -10 21.36 -10 20 C-9.34 20 -8.68 20 -8 20 C-7.81630859 18.92685547 -7.81630859 18.92685547 -7.62890625 17.83203125 C-6.98864625 14.94887287 -6.06448444 12.41407527 -4.9375 9.6875 C-4.57527344 8.80449219 -4.21304687 7.92148438 -3.83984375 7.01171875 C-3.56269531 6.34785156 -3.28554688 5.68398437 -3 5 C-2.34 5 -1.68 5 -1 5 C-0.67 3.35 -0.34 1.7 0 0 Z " fill="#626262" transform="translate(262,201)"/>
<path d="M0 0 C4.95 0 9.9 0 15 0 C15 1.32 15 2.64 15 4 C15.66 4 16.32 4 17 4 C17.33 5.98 17.66 7.96 18 10 C18.66 10 19.32 10 20 10 C20.33 7.36 20.66 4.72 21 2 C21.66 2 22.32 2 23 2 C23 1.34 23 0.68 23 0 C23.66 0 24.32 0 25 0 C25 1.65 25 3.3 25 5 C24.34 5 23.68 5 23 5 C22.67 7.97 22.34 10.94 22 14 C20.68 14 19.36 14 18 14 C18 13.34 18 12.68 18 12 C17.34 12 16.68 12 16 12 C16 11.01 16 10.02 16 9 C15.34 9 14.68 9 14 9 C14 7.68 14 6.36 14 5 C13.01 5 12.02 5 11 5 C10.67 6.32 10.34 7.64 10 9 C7.69 9 5.38 9 3 9 C3 10.32 3 11.64 3 13 C5.31 13 7.62 13 10 13 C10 13.66 10 14.32 10 15 C6.37 15 2.74 15 -1 15 C-1.02693575 12.87506859 -1.04636628 10.75004088 -1.0625 8.625 C-1.07410156 7.44164062 -1.08570313 6.25828125 -1.09765625 5.0390625 C-1 2 -1 2 0 0 Z " fill="#E2E2E2" transform="translate(263,407)"/>
<path d="M0 0 C3.4375 1.25 3.4375 1.25 6 3 C6.875 5.1875 6.875 5.1875 7 7 C7.66 7 8.32 7 9 7 C9 10.3 9 13.6 9 17 C8.34 17 7.68 17 7 17 C6.67 18.65 6.34 20.3 6 22 C4.68 22 3.36 22 2 22 C2 22.66 2 23.32 2 24 C-1.3 24 -4.6 24 -8 24 C-8 23.34 -8 22.68 -8 22 C-8.598125 21.9175 -9.19625 21.835 -9.8125 21.75 C-12.70156 20.75946514 -13.43409694 19.59797552 -15 17 C-15.29296875 14.421875 -15.29296875 14.421875 -15.1875 11.75 C-15.16042969 10.85796875 -15.13335937 9.9659375 -15.10546875 9.046875 C-15.07066406 8.37140625 -15.03585937 7.6959375 -15 7 C-14.34 7 -13.68 7 -13 7 C-13 5.68 -13 4.36 -13 3 C-12.01 3 -11.02 3 -10 3 C-10 2.34 -10 1.68 -10 1 C-6.79963835 -0.60018083 -3.48088105 -0.36164998 0 0 Z M-8 3 C-8 3.66 -8 4.32 -8 5 C-8.66 5 -9.32 5 -10 5 C-10 5.66 -10 6.32 -10 7 C-10.66 7 -11.32 7 -12 7 C-13.8273251 10.6546502 -13.31078364 14.00105257 -12.125 17.8125 C-9.1629483 20.86167087 -6.59641929 20.81025179 -2.47265625 21.15234375 C0.22079546 20.98639649 1.74474392 20.45809622 4 19 C5.24377393 16.51245214 5.13306235 14.77344699 5.125 12 C5.12757813 11.113125 5.13015625 10.22625 5.1328125 9.3125 C5.15127902 6.97323034 5.15127902 6.97323034 4 5 C3.34 5 2.68 5 2 5 C2 4.34 2 3.68 2 3 C-1.3 3 -4.6 3 -8 3 Z " fill="#525252" transform="translate(354,201)"/>
<path d="M0 0 C0 0.66 0 1.32 0 2 C0.66 2 1.32 2 2 2 C2 4.97 2 7.94 2 11 C1.34 11 0.68 11 0 11 C0 11.66 0 12.32 0 13 C-2.73905345 14.36952673 -4.97087332 14.12621361 -8 14 C-8.66 13.67 -9.32 13.34 -10 13 C-10 12.34 -10 11.68 -10 11 C-10.66 11 -11.32 11 -12 11 C-12 8.03 -12 5.06 -12 2 C-11.34 2 -10.68 2 -10 2 C-10 1.34 -10 0.68 -10 0 C-6.30581799 -1.231394 -3.7943739 -0.64432764 0 0 Z " fill="#7B7B7B" transform="translate(414,374)"/>
<path d="M0 0 C0 0.66 0 1.32 0 2 C1.32 2 2.64 2 4 2 C4 6.62 4 11.24 4 16 C3.34 16 2.68 16 2 16 C2 16.66 2 17.32 2 18 C0.35 18.33 -1.3 18.66 -3 19 C-3 19.66 -3 20.32 -3 21 C-9.10849414 21.37398944 -13.64285578 21.1250008 -19 18 C-20.14063571 14.99763705 -20.13451195 12.06150465 -20.125 8.875 C-20.12757813 8.00617188 -20.13015625 7.13734375 -20.1328125 6.2421875 C-20 4 -20 4 -19 2 C-18.34 2 -17.68 2 -17 2 C-17 1.34 -17 0.68 -17 0 C-11.14880182 -2.83694457 -5.85119818 -2.83694457 0 0 Z M-15 2 C-15 2.66 -15 3.32 -15 4 C-15.66 4 -16.32 4 -17 4 C-17 7.3 -17 10.6 -17 14 C-16.34 14 -15.68 14 -15 14 C-14.690625 14.639375 -14.38125 15.27875 -14.0625 15.9375 C-13.1654837 17.93610821 -13.1654837 17.93610821 -12 19 C-7.1046701 19.37656384 -3.82924587 19.2490571 0 16 C0 14.68 0 13.36 0 12 C0.66 12 1.32 12 2 12 C2.3636198 7.75776898 1.5393228 5.41831915 -1 2 C-1.66 2 -2.32 2 -3 2 C-3 1.34 -3 0.68 -3 0 C-4.4370809 -0.05422947 -5.87475462 -0.09289723 -7.3125 -0.125 C-8.51326172 -0.15980469 -8.51326172 -0.15980469 -9.73828125 -0.1953125 C-12.28388576 -0.15817322 -12.28388576 -0.15817322 -15 2 Z " fill="#4D4D4D" transform="translate(201,204)"/>
<path d="M0 0 C1.24546405 2.49092811 0.7767578 3.41080733 0 6 C-0.66 6 -1.32 6 -2 6 C-1.6596875 7.2065625 -1.6596875 7.2065625 -1.3125 8.4375 C-0.89836577 13.15863018 -2.28885735 16.64963732 -4 21 C-4.66 21 -5.32 21 -6 21 C-6.11472656 22.00933594 -6.22945313 23.01867187 -6.34765625 24.05859375 C-6.99690092 27.98127564 -8.04953719 31.34341864 -9.4375 35.0625 C-11.02691378 39.35628946 -12.57590488 43.64823025 -14 48 C-14.66 48 -15.32 48 -16 48 C-16 49.32 -16 50.64 -16 52 C-16.66 52 -17.32 52 -18 52 C-18.0825 53.155 -18.165 54.31 -18.25 55.5 C-18.81486683 60.22127498 -20.66168853 63.9106739 -23 68 C-24.18771723 64.57056481 -23.80226223 62.62215325 -22.5625 59.25 C-22.27503906 58.45078125 -21.98757813 57.6515625 -21.69140625 56.828125 C-21.46324219 56.22484375 -21.23507812 55.6215625 -21 55 C-20.34 55 -19.68 55 -19 55 C-18.67 51.7 -18.34 48.4 -18 45 C-17.34 45 -16.68 45 -16 45 C-16 44.01 -16 43.02 -16 42 C-15.34 42 -14.68 42 -14 42 C-13.92652344 41.11248047 -13.92652344 41.11248047 -13.8515625 40.20703125 C-13.43543133 35.80895528 -12.95034405 32.03071103 -11 28 C-10.34 28 -9.68 28 -9 28 C-8.87625 26.989375 -8.7525 25.97875 -8.625 24.9375 C-8.01914665 21.12062388 -7.12806088 17.68499888 -6 14 C-5.34 14 -4.68 14 -4 14 C-3.67 10.7 -3.34 7.4 -3 4 C-2.34 4 -1.68 4 -1 4 C-0.67 2.68 -0.34 1.36 0 0 Z " fill="#4B4B4B" transform="translate(372,117)"/>
<path d="M0 0 C1.32 0 2.64 0 4 0 C4 0.66 4 1.32 4 2 C-4.43796683 4.32885245 -12.75883756 4.27499102 -21.43334961 4.20581055 C-23.82481432 4.18740523 -26.21589323 4.18530247 -28.60742188 4.18554688 C-30.14062833 4.18063541 -31.67383219 4.17480872 -33.20703125 4.16796875 C-33.91543655 4.16685593 -34.62384186 4.1657431 -35.35371399 4.16459656 C-39.02340078 4.12955233 -42.43047655 3.86802844 -46 3 C-45.34 2.01 -44.68 1.02 -44 0 C-41.25007646 -0.35093207 -38.7150053 -0.51306092 -35.95703125 -0.546875 C-35.1552092 -0.56719788 -34.35338715 -0.58752075 -33.52726746 -0.60845947 C-31.82684026 -0.64871702 -30.12623229 -0.68186508 -28.42553711 -0.70849609 C-25.83973256 -0.74956745 -23.25518016 -0.81224407 -20.66992188 -0.87890625 C-19.01565279 -0.91534685 -17.36135572 -0.95054225 -15.70703125 -0.984375 C-14.94010452 -1.0019989 -14.1731778 -1.0196228 -13.38301086 -1.03778076 C-8.81191172 -1.10264975 -4.53003417 -0.70791487 0 0 Z " fill="#535353" transform="translate(148,313)"/>
<path d="M0 0 C1.98 0 3.96 0 6 0 C6 0.66 6 1.32 6 2 C7.32 2 8.64 2 10 2 C10 2.66 10 3.32 10 4 C6.04 3.67 2.08 3.34 -2 3 C-2 5.31 -2 7.62 -2 10 C-0.35 10 1.3 10 3 10 C3 10.66 3 11.32 3 12 C5.31 12.33 7.62 12.66 10 13 C11.125 19.75 11.125 19.75 10 22 C9.34 22 8.68 22 8 22 C8 22.66 8 23.32 8 24 C4.04 24 0.08 24 -4 24 C-4 23.34 -4 22.68 -4 22 C-4.66 22 -5.32 22 -6 22 C-6 21.01 -6 20.02 -6 19 C-5.44828125 19.16371094 -4.8965625 19.32742187 -4.328125 19.49609375 C-1.73385993 20.05760414 0.59835411 20.09739008 3.25 20.0625 C4.58804687 20.04896484 4.58804687 20.04896484 5.953125 20.03515625 C6.62859375 20.02355469 7.3040625 20.01195312 8 20 C8 18.35 8 16.7 8 15 C4.7 14.67 1.4 14.34 -2 14 C-2 13.34 -2 12.68 -2 12 C-2.66 12 -3.32 12 -4 12 C-4 11.34 -4 10.68 -4 10 C-4.66 10 -5.32 10 -6 10 C-6 7.69 -6 5.38 -6 3 C-4.02 2.67 -2.04 2.34 0 2 C0 1.34 0 0.68 0 0 Z " fill="#505050" transform="translate(314,201)"/>
<path d="M0 0 C5.61 0 11.22 0 17 0 C17 1.32 17 2.64 17 4 C12.71 4 8.42 4 4 4 C4 6.64 4 9.28 4 12 C7.63 12 11.26 12 15 12 C15 12.66 15 13.32 15 14 C11.04 14 7.08 14 3 14 C3 17.3 3 20.6 3 24 C2.01 24 1.02 24 0 24 C0 16.08 0 8.16 0 0 Z " fill="#494949" transform="translate(121,201)"/>
<path d="M0 0 C1.77206192 0.00015919 3.54412846 0.00585754 5.31616211 0.01586914 C6.24698105 0.01728409 7.17779999 0.01869904 8.13682556 0.02015686 C11.12241777 0.02577367 14.10793615 0.03832899 17.09350586 0.05102539 C19.11238499 0.05603823 21.13126529 0.06060151 23.15014648 0.06469727 C28.11046158 0.07574856 33.07072118 0.09302444 38.03100586 0.11352539 C38.03100586 0.77352539 38.03100586 1.43352539 38.03100586 2.11352539 C34.40100586 2.11352539 30.77100586 2.11352539 27.03100586 2.11352539 C27.52600586 3.10352539 27.52600586 3.10352539 28.03100586 4.11352539 C26.86529053 4.15110962 26.86529053 4.15110962 25.67602539 4.18945312 C22.16917516 4.30519335 18.66260841 4.42801891 15.15600586 4.55102539 C13.93268555 4.5903418 12.70936523 4.6296582 11.44897461 4.67016602 C10.28237305 4.71206055 9.11577148 4.75395508 7.91381836 4.79711914 C6.83503418 4.83377686 5.75625 4.87043457 4.64477539 4.90820312 C2.0503105 4.94729182 2.0503105 4.94729182 0.03100586 6.11352539 C-1.67602149 6.18348553 -3.38567417 6.19792693 -5.09399414 6.17602539 C-6.00407227 6.16700195 -6.91415039 6.15797852 -7.85180664 6.14868164 C-8.55047852 6.13708008 -9.24915039 6.12547852 -9.96899414 6.11352539 C-8.97899414 5.45352539 -7.98899414 4.79352539 -6.96899414 4.11352539 C-10.26899414 4.11352539 -13.56899414 4.11352539 -16.96899414 4.11352539 C-14.47500249 1.61953374 -13.35456841 1.78420451 -9.90649414 1.55102539 C-6.06468828 1.28094148 -3.77731182 0.10804269 0 0 Z " fill="#666666" transform="translate(103.968994140625,99.886474609375)"/>
<path d="M0 0 C1.32 0 2.64 0 4 0 C3.28272968 6.40258139 2.17132555 12.67827896 0.9375 19 C0.75123047 19.96550781 0.56496094 20.93101562 0.37304688 21.92578125 C-0.08231343 24.28431409 -0.54004287 26.64236011 -1 29 C-1.66 29 -2.32 29 -3 29 C-3 29.99 -3 30.98 -3 32 C-3.66 32 -4.32 32 -5 32 C-5.33 34.31 -5.66 36.62 -6 39 C-6.66 38.01 -7.32 37.02 -8 36 C-8.99 36.495 -8.99 36.495 -10 37 C-8.99664392 34.49160981 -7.99426125 31.98649705 -6.9375 29.5 C-6.00249669 27.00665785 -5.44920549 24.62036533 -5 22 C-4.34 22 -3.68 22 -3 22 C-2.95101563 21.33355469 -2.90203125 20.66710937 -2.8515625 19.98046875 C-2.30335731 13.22242201 -1.32447857 6.64811086 0 0 Z " fill="#4C4C4C" transform="translate(400,242)"/>
<path d="M0 0 C0.99 0 1.98 0 3 0 C3.33 1.65 3.66 3.3 4 5 C4.99 5.33 5.98 5.66 7 6 C6.01 6 5.02 6 4 6 C4 6.66 4 7.32 4 8 C2.68 8 1.36 8 0 8 C0 8.66 0 9.32 0 10 C-1.65 10 -3.3 10 -5 10 C-5 10.66 -5 11.32 -5 12 C-6.9147688 12.36428777 -8.83192293 12.71605306 -10.75 13.0625 C-11.81734375 13.25972656 -12.8846875 13.45695312 -13.984375 13.66015625 C-16.74771905 13.97156937 -18.40946617 13.8991416 -21 13 C-19.68 12.67 -18.36 12.34 -17 12 C-17 11.34 -17 10.68 -17 10 C-15.68 10 -14.36 10 -13 10 C-13 9.34 -13 8.68 -13 8 C-9.27034861 5.96564469 -7.33094958 5 -3 5 C-3 4.34 -3 3.68 -3 3 C-2.34 3 -1.68 3 -1 3 C-0.67 2.01 -0.34 1.02 0 0 Z " fill="#1F1F1F" transform="translate(165,300)"/>
<path d="M0 0 C1.6026782 -0.10824843 3.20745748 -0.18570645 4.8125 -0.25 C5.70582031 -0.29640625 6.59914062 -0.3428125 7.51953125 -0.390625 C10 0 10 0 11.8359375 1.81640625 C13.4660862 4.87430264 12.94207526 6.73897026 12 10 C9.6203388 11.1898306 8.08514265 11.13349966 5.4375 11.125 C4.22900391 11.12886719 4.22900391 11.12886719 2.99609375 11.1328125 C1 11 1 11 0 10 C-0.07205511 8.31391034 -0.08386068 6.62499341 -0.0625 4.9375 C-0.05347656 4.01839844 -0.04445312 3.09929687 -0.03515625 2.15234375 C-0.02355469 1.44207031 -0.01195312 0.73179687 0 0 Z " fill="#E7E7E7" transform="translate(223,204)"/>
<path d="M0 0 C2.64 0 5.28 0 8 0 C8 0.66 8 1.32 8 2 C8.66 2 9.32 2 10 2 C9.98839844 2.61488281 9.97679687 3.22976563 9.96484375 3.86328125 C9.95582031 4.67152344 9.94679688 5.47976563 9.9375 6.3125 C9.92589844 7.11300781 9.91429687 7.91351563 9.90234375 8.73828125 C9.90342145 11.16861334 9.90342145 11.16861334 11 14 C9.35 13.67 7.7 13.34 6 13 C6 12.34 6 11.68 6 11 C4.35 11 2.7 11 1 11 C0.67 11.99 0.34 12.98 0 14 C0 11.36 0 8.72 0 6 C-0.66 6 -1.32 6 -2 6 C-2 4.68 -2 3.36 -2 2 C-1.34 2 -0.68 2 0 2 C0 1.34 0 0.68 0 0 Z " fill="#7D7D7D" transform="translate(307,403)"/>
<path d="M0 0 C7 0 7 0 10 1 C10 1.99 10 2.98 10 4 C10.66 4 11.32 4 12 4 C12 5.32 12 6.64 12 8 C11.34 8 10.68 8 10 8 C10 9.98 10 11.96 10 14 C9.34 14 8.68 14 8 14 C7.67 12.68 7.34 11.36 7 10 C5.35 10 3.7 10 2 10 C2 11.32 2 12.64 2 14 C1.34 14 0.68 14 0 14 C0 9.38 0 4.76 0 0 Z " fill="#7B7B7B" transform="translate(247,407)"/>
<path d="M0 0 C0.66 0 1.32 0 2 0 C2 4.29 2 8.58 2 13 C-0.475 12.505 -0.475 12.505 -3 12 C-3 10.68 -3 9.36 -3 8 C-3.66 8 -4.32 8 -5 8 C-5.33 10.31 -5.66 12.62 -6 15 C-7.65 15 -9.3 15 -11 15 C-12.4606285 12.35261084 -13 11.10551666 -13 8 C-13.66 8 -14.32 8 -15 8 C-15.33 6.35 -15.66 4.7 -16 3 C-15.01 3.33 -14.02 3.66 -13 4 C-11.8125 7.0625 -11.8125 7.0625 -11 10 C-10.34 10 -9.68 10 -9 10 C-8.67 7.03 -8.34 4.06 -8 1 C-7.01 1 -6.02 1 -5 1 C-5 1.99 -5 2.98 -5 4 C-4.34 4 -3.68 4 -3 4 C-3 4.66 -3 5.32 -3 6 C-2.34 6 -1.68 6 -1 6 C-0.67 4.02 -0.34 2.04 0 0 Z " fill="#8A8A8A" transform="translate(342,399)"/>
<path d="M0 0 C1.32 0 2.64 0 4 0 C4 2.97 4 5.94 4 9 C4.721875 8.525625 5.44375 8.05125 6.1875 7.5625 C8.89475226 6.05847097 10.96194275 5.43400818 14 5 C14 6.65 14 8.3 14 10 C13.34 10 12.68 10 12 10 C11.67 12.31 11.34 14.62 11 17 C10.01 17 9.02 17 8 17 C8 15.35 8 13.7 8 12 C6.7934375 12.2784375 6.7934375 12.2784375 5.5625 12.5625 C4.716875 12.706875 3.87125 12.85125 3 13 C2 12 2 12 1.9375 8.4375 C1.958125 7.303125 1.97875 6.16875 2 5 C1.34 5 0.68 5 0 5 C0 6.65 0 8.3 0 10 C-0.66 10 -1.32 10 -2 10 C-2.33 10.66 -2.66 11.32 -3 12 C-2.67 9.03 -2.34 6.06 -2 3 C-1.34 3 -0.68 3 0 3 C0 2.01 0 1.02 0 0 Z " fill="#AFAFAF" transform="translate(128,380)"/>
<path d="M0 0 C2.64 0 5.28 0 8 0 C8 0.66 8 1.32 8 2 C8.86278564 2.02505615 9.72557129 2.0501123 10.61450195 2.07592773 C13.81823769 2.17111385 17.02181537 2.27034444 20.2253418 2.37231445 C21.61135983 2.41560218 22.99742906 2.45728164 24.38354492 2.49731445 C26.37691798 2.55516584 28.37010565 2.61929776 30.36328125 2.68359375 C32.16212769 2.73858032 32.16212769 2.73858032 33.99731445 2.79467773 C37 3 37 3 40 4 C42.28878326 4.20244766 44.58129605 4.36422048 46.875 4.5 C51.01187126 4.74592865 54.95633937 5.07749187 59 6 C59 6.33 59 6.66 59 7 C46.85349777 7.31644488 34.79534869 6.35090926 22.6875 5.5 C20.57880378 5.35506463 18.47007996 5.21053016 16.36132812 5.06640625 C11.24055559 4.71555825 6.12018692 4.35928901 1 4 C0.67 2.68 0.34 1.36 0 0 Z " fill="#B3B3B3" transform="translate(48,310)"/>
<path d="M0 0 C0.66 0 1.32 0 2 0 C3.4606285 2.64738916 4 3.89448334 4 7 C4.66 7 5.32 7 6 7 C6 9.31 6 11.62 6 14 C5.01 14 4.02 14 3 14 C2.34 13.01 1.68 12.02 1 11 C-1.58380177 10.74969023 -1.58380177 10.74969023 -4 11 C-3.67 13.31 -3.34 15.62 -3 18 C-3.66 18 -4.32 18 -5 18 C-5.67260351 16.23141309 -6.33788395 14.46003984 -7 12.6875 C-7.37125 11.70136719 -7.7425 10.71523438 -8.125 9.69921875 C-9 7 -9 7 -9 4 C-8.01 4 -7.02 4 -6 4 C-6 5.65 -6 7.3 -6 9 C-4.35 9 -2.7 9 -1 9 C-0.67 6.03 -0.34 3.06 0 0 Z " fill="#959595" transform="translate(376,386)"/>
<path d="M0 0 C2.64 0 5.28 0 8 0 C8 0.66 8 1.32 8 2 C8.66 2 9.32 2 10 2 C10 2.66 10 3.32 10 4 C10.66 4 11.32 4 12 4 C12 6.31 12 8.62 12 11 C11.34 11 10.68 11 10 11 C10 11.66 10 12.32 10 13 C9.34 13 8.68 13 8 13 C8 10.36 8 7.72 8 5 C7.34 5 6.68 5 6 5 C6 4.34 6 3.68 6 3 C4.35 3.33 2.7 3.66 1 4 C0.67 6.97 0.34 9.94 0 13 C-0.66 13 -1.32 13 -2 13 C-2 12.34 -2 11.68 -2 11 C-2.66 11 -3.32 11 -4 11 C-4 9.35 -4 7.7 -4 6 C-3.34 6 -2.68 6 -2 6 C-2 4.68 -2 3.36 -2 2 C-1.34 2 -0.68 2 0 2 C0 1.34 0 0.68 0 0 Z " fill="#A8A8A8" transform="translate(232,406)"/>
<path d="M0 0 C3.91665027 -0.02953391 7.83327113 -0.04697503 11.75 -0.0625 C12.84183594 -0.07087891 13.93367188 -0.07925781 15.05859375 -0.08789062 C22.4247337 -0.10968394 29.67078775 0.2649241 37 1 C37 1.66 37 2.32 37 3 C38.65 3 40.3 3 42 3 C42 3.66 42 4.32 42 5 C41.05125 4.979375 40.1025 4.95875 39.125 4.9375 C36.09333717 4.77448174 36.09333717 4.77448174 34 6 C32.45386986 5.91348369 30.91090613 5.75997364 29.375 5.5625 C28.14910156 5.40974609 28.14910156 5.40974609 26.8984375 5.25390625 C25.95871094 5.12822266 25.95871094 5.12822266 25 5 C25 4.34 25 3.68 25 3 C23.5459375 3.0309375 23.5459375 3.0309375 22.0625 3.0625 C19 3 19 3 18 2 C16.65984779 1.84417697 15.31241097 1.74955858 13.96484375 1.68359375 C13.15595703 1.64169922 12.34707031 1.59980469 11.51367188 1.55664062 C10.66353516 1.51732422 9.81339844 1.47800781 8.9375 1.4375 C8.08349609 1.39431641 7.22949219 1.35113281 6.34960938 1.30664062 C4.23327963 1.20023298 2.11666187 1.09958269 0 1 C0 0.67 0 0.34 0 0 Z " fill="#2D2D2D" transform="translate(113,101)"/>
<path d="M0 0 C0 2.97 0 5.94 0 9 C1.093125 8.505 2.18625 8.01 3.3125 7.5 C7 6 7 6 10 6 C10 7.32 10 8.64 10 10 C9.34 10 8.68 10 8 10 C7.87625 10.804375 7.7525 11.60875 7.625 12.4375 C7.41875 13.283125 7.2125 14.12875 7 15 C6.01 15.495 6.01 15.495 5 16 C5 14.35 5 12.7 5 11 C3.68 11 2.36 11 1 11 C1 11.66 1 12.32 1 13 C0.01 13 -0.98 13 -2 13 C-2 10.69 -2 8.38 -2 6 C-2.66 6 -3.32 6 -4 6 C-4.33 7.65 -4.66 9.3 -5 11 C-5.66 11 -6.32 11 -7 11 C-6.67 8.69 -6.34 6.38 -6 4 C-5.34 4 -4.68 4 -4 4 C-4 3.01 -4 2.02 -4 1 C-2 0 -2 0 0 0 Z " fill="#7C7C7C" transform="translate(101,365)"/>
<path d="M0 0 C1.2065625 0.0309375 1.2065625 0.0309375 2.4375 0.0625 C2.4375 0.7225 2.4375 1.3825 2.4375 2.0625 C3.0975 2.0625 3.7575 2.0625 4.4375 2.0625 C4.4375 5.3625 4.4375 8.6625 4.4375 12.0625 C1.7975 12.0625 -0.8425 12.0625 -3.5625 12.0625 C-3.58937279 10.25007948 -3.60883715 8.43754767 -3.625 6.625 C-3.63660156 5.61566406 -3.64820313 4.60632813 -3.66015625 3.56640625 C-3.52706167 0.15386128 -3.42090834 0.08343679 0 0 Z " fill="#DBDBDB" transform="translate(235.5625,408.9375)"/>
<path d="M0 0 C0.33 0.99 0.66 1.98 1 3 C-1.97 2.505 -1.97 2.505 -5 2 C-3.77065985 5.68802044 -2.06140622 6.72356973 1 9 C0.67 10.65 0.34 12.3 0 14 C-2.97 14 -5.94 14 -9 14 C-9 13.34 -9 12.68 -9 12 C-9.66 12 -10.32 12 -11 12 C-11 11.34 -11 10.68 -11 10 C-8.36 10.33 -5.72 10.66 -3 11 C-4.72226496 7.75150023 -4.72226496 7.75150023 -8 7 C-8.33 5.02 -8.66 3.04 -9 1 C-6.04335481 -0.4783226 -3.25770263 -0.06032783 0 0 Z " fill="#8F8F8F" transform="translate(205,402)"/>
<path d="M0 0 C-0.33 1.32 -0.66 2.64 -1 4 C-3.31 4 -5.62 4 -8 4 C-8 4.99 -8 5.98 -8 7 C-5.69 7 -3.38 7 -1 7 C-1 7.66 -1 8.32 -1 9 C-2.65 9 -4.3 9 -6 9 C-6 10.65 -6 12.3 -6 14 C-4.02 14 -2.04 14 0 14 C0 14.66 0 15.32 0 16 C-2.64 16 -5.28 16 -8 16 C-8 14.35 -8 12.7 -8 11 C-8.66 11 -9.32 11 -10 11 C-10 7.7 -10 4.4 -10 1 C-6.78548731 -0.60725635 -3.56387464 -0.05748185 0 0 Z " fill="#757575" transform="translate(301,405)"/>
<path d="M0 0 C3.375 -0.125 3.375 -0.125 7 0 C9 2 9 2 9.125 5.625 C9.08375 6.73875 9.0425 7.8525 9 9 C2.64 10.32 2.64 10.32 0 9 C-1.55854182 5.88291635 -0.68784644 3.3141692 0 0 Z " fill="#ECECEC" transform="translate(405,376)"/>
<path d="M0 0 C4.455 0.99 4.455 0.99 9 2 C9 3.32 9 4.64 9 6 C7.68 5.67 6.36 5.34 5 5 C5 4.34 5 3.68 5 3 C3.35 3.33 1.7 3.66 0 4 C0 4.99 0 5.98 0 7 C1.65 7.33 3.3 7.66 5 8 C5 8.66 5 9.32 5 10 C2.69 9.67 0.38 9.34 -2 9 C-2 10.32 -2 11.64 -2 13 C-0.68 13 0.64 13 2 13 C2.33 14.32 2.66 15.64 3 17 C2.01 17 1.02 17 0 17 C0 16.34 0 15.68 0 15 C-1.65 14.67 -3.3 14.34 -5 14 C-4.67 11.69 -4.34 9.38 -4 7 C-3.34 7 -2.68 7 -2 7 C-2 5.68 -2 4.36 -2 3 C-1.34 3 -0.68 3 0 3 C0 2.01 0 1.02 0 0 Z " fill="#7C7C7C" transform="translate(116,373)"/>
<path d="M0 0 C1.9375 0.6875 1.9375 0.6875 4 2 C4.75 4.625 4.75 4.625 5 7 C5.66 7 6.32 7 7 7 C7 8.65 7 10.3 7 12 C6.34 12 5.68 12 5 12 C4.34 13.32 3.68 14.64 3 16 C1.02 16 -0.96 16 -3 16 C-3.66 14.35 -4.32 12.7 -5 11 C-5.66 11 -6.32 11 -7 11 C-7.33 9.02 -7.66 7.04 -8 5 C-7.01 5 -6.02 5 -5 5 C-5 6.32 -5 7.64 -5 9 C-4.34 9 -3.68 9 -3 9 C-3 9.99 -3 10.98 -3 12 C-2.34 12 -1.68 12 -1 12 C-1 12.66 -1 13.32 -1 14 C-0.01 14 0.98 14 2 14 C2 13.34 2 12.68 2 12 C2.66 11.67 3.32 11.34 4 11 C3.71125 10.29875 3.4225 9.5975 3.125 8.875 C1.97866412 5.94547497 0.97374346 2.99078347 0 0 Z " fill="#878787" transform="translate(424,364)"/>
<path d="M0 0 C3.85645121 -0.22036864 6.49223216 0.39644899 10 2 C10 2.66 10 3.32 10 4 C7.36 3.67 4.72 3.34 2 3 C2 4.32 2 5.64 2 7 C3.65 7 5.3 7 7 7 C7 7.66 7 8.32 7 9 C4.69 9 2.38 9 0 9 C0 10.32 0 11.64 0 13 C2.31 13.33 4.62 13.66 7 14 C7 14.66 7 15.32 7 16 C5.35 16 3.7 16 2 16 C2 15.34 2 14.68 2 14 C0.68 14 -0.64 14 -2 14 C-2.21192221 8.80790596 -1.5912689 4.873261 0 0 Z " fill="#767676" transform="translate(184,398)"/>
<path d="M0 0 C0.66 0 1.32 0 2 0 C2 7.26 2 14.52 2 22 C6.62 22 11.24 22 16 22 C16 22.66 16 23.32 16 24 C10.72 24 5.44 24 0 24 C0 16.08 0 8.16 0 0 Z " fill="#3E3E3E" transform="translate(153,201)"/>
<path d="M0 0 C2.475 0.99 2.475 0.99 5 2 C5 2.66 5 3.32 5 4 C5.66 4 6.32 4 7 4 C7 4.66 7 5.32 7 6 C9.97 6.495 9.97 6.495 13 7 C13 7.66 13 8.32 13 9 C18.48269069 10.15664737 23.80339274 10.11416255 29.375 10.0625 C30.76525391 10.05573242 30.76525391 10.05573242 32.18359375 10.04882812 C34.45579709 10.03711574 36.72786388 10.02071372 39 10 C39 10.66 39 11.32 39 12 C28.69528837 13.79212376 20.06042731 12.90404087 10 10 C10 9.34 10 8.68 10 8 C8.35 7.67 6.7 7.34 5 7 C5 6.34 5 5.68 5 5 C4.34 5 3.68 5 3 5 C3 4.34 3 3.68 3 3 C2.34 3 1.68 3 1 3 C0.67 2.01 0.34 1.02 0 0 Z " fill="#8E8E8E" transform="translate(324,295)"/>
<path d="M0 0 C0.66 0 1.32 0 2 0 C2 1.65 2 3.3 2 5 C1.34 5 0.68 5 0 5 C-0.33 7.97 -0.66 10.94 -1 14 C-2.32 14 -3.64 14 -5 14 C-5 13.34 -5 12.68 -5 12 C-5.66 12 -6.32 12 -7 12 C-7 11.01 -7 10.02 -7 9 C-7.66 9 -8.32 9 -9 9 C-9.33 6.69 -9.66 4.38 -10 2 C-9.34 2 -8.68 2 -8 2 C-8 2.66 -8 3.32 -8 4 C-7.34 4 -6.68 4 -6 4 C-5.67 5.98 -5.34 7.96 -5 10 C-4.34 10 -3.68 10 -3 10 C-2.67 7.36 -2.34 4.72 -2 2 C-1.34 2 -0.68 2 0 2 C0 1.34 0 0.68 0 0 Z " fill="#818181" transform="translate(286,407)"/>
<path d="M0 0 C0.99 0 1.98 0 3 0 C3 7.92 3 15.84 3 24 C2.01 24 1.02 24 0 24 C0 16.08 0 8.16 0 0 Z " fill="#666666" transform="translate(290,201)"/>
<path d="M0 0 C2.97 0 5.94 0 9 0 C9 0.33 9 0.66 9 1 C6.69 1 4.38 1 2 1 C2 1.99 2 2.98 2 4 C4.31 4.33 6.62 4.66 9 5 C9 5.33 9 5.66 9 6 C7.35 6 5.7 6 4 6 C4 7.65 4 9.3 4 11 C6.31 11 8.62 11 11 11 C11 11.66 11 12.32 11 13 C7.37 13 3.74 13 0 13 C0 8.71 0 4.42 0 0 Z " fill="#9F9F9F" transform="translate(262,409)"/>
<path d="M0 0 C2.625 -0.1875 2.625 -0.1875 5 0 C5 0.66 5 1.32 5 2 C5.66 2 6.32 2 7 2 C7.04254356 3.99954746 7.04080783 6.00041636 7 8 C6 9 6 9 2.4375 9.0625 C1.303125 9.041875 0.16875 9.02125 -1 9 C-1.625 6.1875 -1.625 6.1875 -2 3 C-1.34 2.01 -0.68 1.02 0 0 Z " fill="#F7F7F7" transform="translate(148,390)"/>
<path d="M0 0 C0.33 0 0.66 0 1 0 C0.67 3.3 0.34 6.6 0 10 C-0.66 10 -1.32 10 -2 10 C-2 11.32 -2 12.64 -2 14 C-2.66 14 -3.32 14 -4 14 C-4.0825 15.155 -4.165 16.31 -4.25 17.5 C-4.81486683 22.22127498 -6.66168853 25.9106739 -9 30 C-10.18771723 26.57056481 -9.80226223 24.62215325 -8.5625 21.25 C-8.27503906 20.45078125 -7.98757813 19.6515625 -7.69140625 18.828125 C-7.46324219 18.22484375 -7.23507812 17.6215625 -7 17 C-6.34 17 -5.68 17 -5 17 C-4.67 13.7 -4.34 10.4 -4 7 C-3.34 7 -2.68 7 -2 7 C-2 6.01 -2 5.02 -2 4 C-1.34 4 -0.68 4 0 4 C0 2.68 0 1.36 0 0 Z " fill="#4A4A4A" transform="translate(358,155)"/>
<path d="M0 0 C0.66 0.66 1.32 1.32 2 2 C2 1.34 2 0.68 2 0 C2.66 0 3.32 0 4 0 C4 3.3 4 6.6 4 10 C3.34 10 2.68 10 2 10 C1.67 11.65 1.34 13.3 1 15 C-0.32 15 -1.64 15 -3 15 C-3 15.66 -3 16.32 -3 17 C-3.66 17 -4.32 17 -5 17 C-5 16.34 -5 15.68 -5 15 C-7.31 15 -9.62 15 -12 15 C-12.33 14.34 -12.66 13.68 -13 13 C-10.02148438 13.04882812 -10.02148438 13.04882812 -7.04296875 13.09765625 C-4.79694539 13.08263217 -4.79694539 13.08263217 -2 12 C-0.78306124 9.56612247 -0.68040104 7.58161154 -0.4375 4.875 C-0.35371094 3.96492187 -0.26992188 3.05484375 -0.18359375 2.1171875 C-0.12300781 1.41851562 -0.06242187 0.71984375 0 0 Z " fill="#6A6A6A" transform="translate(359,208)"/>
<path d="M0 0 C3.3 0 6.6 0 10 0 C10 0.66 10 1.32 10 2 C7.69 2 5.38 2 3 2 C3 3.65 3 5.3 3 7 C4.65 7 6.3 7 8 7 C8 7.66 8 8.32 8 9 C5.69 9 3.38 9 1 9 C1 10.65 1 12.3 1 14 C0.34 14 -0.32 14 -1 14 C-1.027193 12.41676312 -1.04648306 10.83338938 -1.0625 9.25 C-1.07410156 8.36828125 -1.08570313 7.4865625 -1.09765625 6.578125 C-1 4 -1 4 0 0 Z " fill="#838383" transform="translate(217,405)"/>
<path d="M0 0 C0 0.66 0 1.32 0 2 C0.66 2 1.32 2 2 2 C3.125 8.625 3.125 8.625 2 12 C1.34 12 0.68 12 0 12 C0 9.36 0 6.72 0 4 C-0.66 4 -1.32 4 -2 4 C-2 3.34 -2 2.68 -2 2 C-3.65 2 -5.3 2 -7 2 C-7.33 2.99 -7.66 3.98 -8 5 C-8.66 5 -9.32 5 -10 5 C-10 6.65 -10 8.3 -10 10 C-10.66 10 -11.32 10 -12 10 C-12 8.02 -12 6.04 -12 4 C-11.34 4 -10.68 4 -10 4 C-10 3.01 -10 2.02 -10 1 C-6.78548731 -0.60725635 -3.56387464 -0.05748185 0 0 Z " fill="#818181" transform="translate(155,388)"/>
<path d="M0 0 C0.66 0 1.32 0 2 0 C2 2.31 2 4.62 2 7 C1.34 7 0.68 7 0 7 C0 8.65 0 10.3 0 12 C0.66 12 1.32 12 2 12 C2 12.99 2 13.98 2 15 C0.68 14.67 -0.64 14.34 -2 14 C-2 12.68 -2 11.36 -2 10 C-4.97 9.505 -4.97 9.505 -8 9 C-8 8.34 -8 7.68 -8 7 C-8.66 7 -9.32 7 -10 7 C-10 6.34 -10 5.68 -10 5 C-9.01 5 -8.02 5 -7 5 C-7 5.66 -7 6.32 -7 7 C-5.35 7.33 -3.7 7.66 -2 8 C-2 6.02 -2 4.04 -2 2 C-1.34 2 -0.68 2 0 2 C0 1.34 0 0.68 0 0 Z " fill="#7B7B7B" transform="translate(397,378)"/>
<path d="M0 0 C6.6 0 13.2 0 20 0 C20 0.66 20 1.32 20 2 C17.69 2.33 15.38 2.66 13 3 C12.67 4.32 12.34 5.64 12 7 C11.34 7 10.68 7 10 7 C10 6.34 10 5.68 10 5 C9.34 5 8.68 5 8 5 C8 4.34 8 3.68 8 3 C5.36 3 2.72 3 0 3 C0 2.01 0 1.02 0 0 Z " fill="#272727" transform="translate(50,104)"/>
<path d="M0 0 C-0.165 0.825 -0.33 1.65 -0.5 2.5 C-1.05896045 6.41272317 -1.06807187 10.05183173 -1 14 C-1.66 14 -2.32 14 -3 14 C-3 12.35 -3 10.7 -3 9 C-3.66 9 -4.32 9 -5 9 C-5 7.35 -5 5.7 -5 4 C-6.98 4 -8.96 4 -11 4 C-11 3.34 -11 2.68 -11 2 C-10.01 2 -9.02 2 -8 2 C-8 1.34 -8 0.68 -8 0 C-4.71303767 -0.79953138 -3.28976808 -1.09658936 0 0 Z " fill="#959595" transform="translate(364,393)"/>
<path d="M0 0 C0.33 0 0.66 0 1 0 C0.67 2.97 0.34 5.94 0 9 C-0.66 9 -1.32 9 -2 9 C-2 9.66 -2 10.32 -2 11 C-2.66 11 -3.32 11 -4 11 C-4.33 12.65 -4.66 14.3 -5 16 C-5.33 15.01 -5.66 14.02 -6 13 C-6.66 13 -7.32 13 -8 13 C-8.33 13.99 -8.66 14.98 -9 16 C-9.66 16 -10.32 16 -11 16 C-11 15.34 -11 14.68 -11 14 C-10.34 14 -9.68 14 -9 14 C-8.34 12.35 -7.68 10.7 -7 9 C-6.34 9 -5.68 9 -5 9 C-4.67 7.35 -4.34 5.7 -4 4 C-3.34 4 -2.68 4 -2 4 C-1.34 2.68 -0.68 1.36 0 0 Z " fill="#323232" transform="translate(392,277)"/>
<path d="M0 0 C0.66 0 1.32 0 2 0 C2 0.99 2 1.98 2 3 C2.66 3 3.32 3 4 3 C4 4.32 4 5.64 4 7 C4.66 7 5.32 7 6 7 C6 7.99 6 8.98 6 10 C11.28 10 16.56 10 22 10 C22.33 9.34 22.66 8.68 23 8 C23.33 9.32 23.66 10.64 24 12 C17.73 12 11.46 12 5 12 C5 11.34 5 10.68 5 10 C4.34 10 3.68 10 3 10 C3 8.35 3 6.7 3 5 C2.34 5 1.68 5 1 5 C0.67 3.35 0.34 1.7 0 0 Z " fill="#5B5B5B" transform="translate(390,174)"/>
<path d="M0 0 C1.32 0 2.64 0 4 0 C3.52922605 4.31542783 2.96969081 8.60409976 2.1875 12.875 C2.05730469 13.61492187 1.92710937 14.35484375 1.79296875 15.1171875 C1 17 1 17 -3 19 C-2.01 12.73 -1.02 6.46 0 0 Z " fill="#555555" transform="translate(400,242)"/>
<path d="M0 0 C5.61 0 11.22 0 17 0 C17 1.32 17 2.64 17 4 C12.71 4 8.42 4 4 4 C4 6.64 4 9.28 4 12 C3.67 12 3.34 12 3 12 C3 9.03 3 6.06 3 3 C2.01 2.67 1.02 2.34 0 2 C0 1.34 0 0.68 0 0 Z " fill="#989898" transform="translate(121,201)"/>
<path d="M0 0 C1.98 0 3.96 0 6 0 C6 0.66 6 1.32 6 2 C7.010625 1.95875 8.02125 1.9175 9.0625 1.875 C13.18076052 2.00573843 16.11830533 2.73250786 20 4 C20 4.33 20 4.66 20 5 C16.72924117 5.0580476 13.45861476 5.09361165 10.1875 5.125 C9.25873047 5.14175781 8.32996094 5.15851563 7.37304688 5.17578125 C6.48037109 5.18222656 5.58769531 5.18867188 4.66796875 5.1953125 C3.84578857 5.20578613 3.0236084 5.21625977 2.17651367 5.22705078 C0 5 0 5 -3 3 C-1.02 2.67 0.96 2.34 3 2 C2.01 1.34 1.02 0.68 0 0 Z " fill="#222222" transform="translate(88,310)"/>
<path d="M0 0 C0.66 0 1.32 0 2 0 C2 6.93 2 13.86 2 21 C1.34 21 0.68 21 0 21 C0 20.34 0 19.68 0 19 C-1.32 18.34 -2.64 17.68 -4 17 C-4 16.34 -4 15.68 -4 15 C-2.68 15 -1.36 15 0 15 C0 10.05 0 5.1 0 0 Z " fill="#404040" transform="translate(396,203)"/>
<path d="M0 0 C0.33 0.66 0.66 1.32 1 2 C1.66 2 2.32 2 3 2 C3.33 4.64 3.66 7.28 4 10 C1.36 10 -1.28 10 -4 10 C-4 9.01 -4 8.02 -4 7 C-3.34 7 -2.68 7 -2 7 C-1.855625 6.21625 -1.71125 5.4325 -1.5625 4.625 C-1 2 -1 2 0 0 Z " fill="#EAEAEA" transform="translate(263,206)"/>
<path d="M0 0 C1.32 0 2.64 0 4 0 C4 0.66 4 1.32 4 2 C3.34 2 2.68 2 2 2 C2 9.26 2 16.52 2 24 C1.34 24 0.68 24 0 24 C0 16.08 0 8.16 0 0 Z " fill="#828282" transform="translate(378,201)"/>
<path d="M0 0 C0.66 0 1.32 0 2 0 C2 1.32 2 2.64 2 4 C2.66 4 3.32 4 4 4 C4 5.65 4 7.3 4 9 C4.66 9 5.32 9 6 9 C6.75363052 12.35091771 7.11979937 15.43109812 7.09765625 18.86328125 C7.09282227 20.19262695 7.09282227 20.19262695 7.08789062 21.54882812 C7.07951172 22.46083984 7.07113281 23.37285156 7.0625 24.3125 C7.05798828 25.24384766 7.05347656 26.17519531 7.04882812 27.13476562 C7.03709234 29.42324373 7.02067363 31.71158808 7 34 C6.01 34.495 6.01 34.495 5 35 C5 27.08 5 19.16 5 11 C4.34 11 3.68 11 3 11 C2.49632243 9.54293274 1.99717444 8.08429904 1.5 6.625 C1.2215625 5.81289063 0.943125 5.00078125 0.65625 4.1640625 C0 2 0 2 0 0 Z " fill="#6D6D6D" transform="translate(426,267)"/>
<path d="M0 0 C0.99 0 1.98 0 3 0 C3 3.3 3 6.6 3 10 C4.32 10 5.64 10 7 10 C7 10.66 7 11.32 7 12 C5.0625 12.5625 5.0625 12.5625 3 13 C2 12 2 12 1.9375 8.4375 C1.958125 7.303125 1.97875 6.16875 2 5 C1.34 5 0.68 5 0 5 C0 6.65 0 8.3 0 10 C-0.66 10 -1.32 10 -2 10 C-2.33 10.66 -2.66 11.32 -3 12 C-2.67 9.03 -2.34 6.06 -2 3 C-1.34 3 -0.68 3 0 3 C0 2.01 0 1.02 0 0 Z " fill="#797979" transform="translate(128,380)"/>
<path d="M0 0 C0.99 0 1.98 0 3 0 C3.33820166 1.5823006 3.67035939 3.16589375 4 4.75 C4.185625 5.63171875 4.37125 6.5134375 4.5625 7.421875 C5 10 5 10 5 14 C4.01 14 3.02 14 2 14 C0.02905192 9.07262981 -0.1799928 5.21979128 0 0 Z " fill="#A4A4A4" transform="translate(349,397)"/>
<path d="M0 0 C3.3 0 6.6 0 10 0 C10 0.66 10 1.32 10 2 C10.66 2 11.32 2 12 2 C12 4.31 12 6.62 12 9 C11.34 9 10.68 9 10 9 C10 7.35 10 5.7 10 4 C9.34 4 8.68 4 8 4 C8 3.34 8 2.68 8 2 C6.02 2 4.04 2 2 2 C2 2.66 2 3.32 2 4 C0.35 4.33 -1.3 4.66 -3 5 C-2.67 4.01 -2.34 3.02 -2 2 C-1.34 2 -0.68 2 0 2 C0 1.34 0 0.68 0 0 Z " fill="#505050" transform="translate(373,177)"/>
<path d="M0 0 C0.33 0.66 0.66 1.32 1 2 C1.66 2 2.32 2 3 2 C3 4.64 3 7.28 3 10 C3.66 10 4.32 10 5 10 C5.66 11.32 6.32 12.64 7 14 C3.25 15.125 3.25 15.125 1 14 C-0.10348459 10.91857132 -0.10523224 7.99765038 -0.0625 4.75 C-0.05347656 3.85796875 -0.04445312 2.9659375 -0.03515625 2.046875 C-0.02355469 1.37140625 -0.01195312 0.6959375 0 0 Z " fill="#505050" transform="translate(181,208)"/>
<path d="M0 0 C0.99 0 1.98 0 3 0 C5.03435531 3.72965139 6 5.66905042 6 10 C6.66 10 7.32 10 8 10 C8 10.66 8 11.32 8 12 C4.79619983 14.13586678 3.98060033 14.23132175 0.3125 14.125 C-0.89986328 14.09792969 -0.89986328 14.09792969 -2.13671875 14.0703125 C-3.05904297 14.03550781 -3.05904297 14.03550781 -4 14 C-4 13.67 -4 13.34 -4 13 C-1.36 13 1.28 13 4 13 C3.67 10.36 3.34 7.72 3 5 C2.34 5 1.68 5 1 5 C0.67 3.35 0.34 1.7 0 0 Z " fill="#565656" transform="translate(263,203)"/>
<path d="M0 0 C0 0.66 0 1.32 0 2 C0.66 2 1.32 2 2 2 C2 4.97 2 7.94 2 11 C1.34 11 0.68 11 0 11 C-0.33 8.69 -0.66 6.38 -1 4 C-3.97 3.01 -6.94 2.02 -10 1 C-6.1496895 -1.56687367 -4.41430237 -0.83288724 0 0 Z " fill="#8F8F8F" transform="translate(414,374)"/>
<path d="M0 0 C0.99 0 1.98 0 3 0 C3 1.65 3 3.3 3 5 C4.65 5 6.3 5 8 5 C7.01 5.33 6.02 5.66 5 6 C5.33 8.64 5.66 11.28 6 14 C5.34 14 4.68 14 4 14 C3.32739649 12.23141309 2.66211605 10.46003984 2 8.6875 C1.62875 7.70136719 1.2575 6.71523438 0.875 5.69921875 C0 3 0 3 0 0 Z " fill="#888888" transform="translate(367,390)"/>
<path d="M0 0 C1 3 1 3 1 5 C1.66 3.35 2.32 1.7 3 0 C3.66 0.33 4.32 0.66 5 1 C4.01 3.31 3.02 5.62 2 8 C0.68 8 -0.64 8 -2 8 C-2 6.68 -2 5.36 -2 4 C-3.65 4 -5.3 4 -7 4 C-6.01 3.67 -5.02 3.34 -4 3 C-4 2.34 -4 1.68 -4 1 C-2.68 0.67 -1.36 0.34 0 0 Z " fill="#D0D0D0" transform="translate(106,375)"/>
<path d="M0 0 C1.32 0 2.64 0 4 0 C4 0.66 4 1.32 4 2 C3.01 2.495 3.01 2.495 2 3 C1.09274566 5.11327425 1.09274566 5.11327425 0.375 7.5625 C-0.01558594 8.80193359 -0.01558594 8.80193359 -0.4140625 10.06640625 C-0.60742188 10.70449219 -0.80078125 11.34257812 -1 12 C-2.32 12 -3.64 12 -5 12 C-4.42415568 9.61435923 -3.77772405 7.33317216 -3 5 C-2.34 5 -1.68 5 -1 5 C-0.67 3.35 -0.34 1.7 0 0 Z " fill="#616161" transform="translate(262,201)"/>
<path d="M0 0 C2.31 0.33 4.62 0.66 7 1 C7 1.66 7 2.32 7 3 C9.31 3.33 11.62 3.66 14 4 C10.00439392 6.83022097 6.57262677 5.76210446 2 5 C2 4.34 2 3.68 2 3 C1.34 3 0.68 3 0 3 C0 2.01 0 1.02 0 0 Z " fill="#636363" transform="translate(310,210)"/>
<path d="M0 0 C-0.33 0.66 -0.66 1.32 -1 2 C-1.99 2 -2.98 2 -4 2 C-4 2.66 -4 3.32 -4 4 C-4.66 4 -5.32 4 -6 4 C-6 3.34 -6 2.68 -6 2 C-13.26 2 -20.52 2 -28 2 C-28 1.67 -28 1.34 -28 1 C-24.64596947 0.83051801 -21.29175736 0.66492694 -17.9375 0.5 C-16.99455078 0.45230469 -16.05160156 0.40460938 -15.08007812 0.35546875 C-10.04601557 0.10990472 -5.03997893 -0.0559221 0 0 Z " fill="#181818" transform="translate(98,103)"/>
<path d="M0 0 C1.24546405 2.49092811 0.7767578 3.41080733 0 6 C-0.66 6 -1.32 6 -2 6 C-1.79375 6.86625 -1.5875 7.7325 -1.375 8.625 C-0.95952378 12.36428602 -1.60333724 14.54942141 -3 18 C-3.33 17.34 -3.66 16.68 -4 16 C-4.66 16 -5.32 16 -6 16 C-6 15.34 -6 14.68 -6 14 C-5.34 14 -4.68 14 -4 14 C-3.67 10.7 -3.34 7.4 -3 4 C-2.34 4 -1.68 4 -1 4 C-0.67 2.68 -0.34 1.36 0 0 Z " fill="#737373" transform="translate(372,117)"/>
<path d="M0 0 C0.33 0 0.66 0 1 0 C1.09038099 5.15171623 0.84681133 9.91913204 0 15 C-0.99 15.33 -1.98 15.66 -3 16 C-4.75402334 12.49195332 -2.98937179 8.65500408 -2 5 C-1.38103371 3.31503622 -0.73882078 1.63596029 0 0 Z " fill="#313131" transform="translate(399,256)"/>
<path d="M0 0 C2.10353495 -0.0810206 4.20795952 -0.13919907 6.3125 -0.1875 C7.48425781 -0.22230469 8.65601563 -0.25710937 9.86328125 -0.29296875 C13 0 13 0 14.875 1.1875 C16.34713446 3.55927219 16.50731741 5.4126881 16.6875 8.1875 C16.78611328 9.53908203 16.78611328 9.53908203 16.88671875 10.91796875 C16.92410156 11.60503906 16.96148437 12.29210937 17 13 C16.67 13 16.34 13 16 13 C15.67 10.36 15.34 7.72 15 5 C14.34 5 13.68 5 13 5 C13 4.34 13 3.68 13 3 C12.34 3 11.68 3 11 3 C11 2.34 11 1.68 11 1 C7.37 1 3.74 1 0 1 C0 0.67 0 0.34 0 0 Z " fill="#383838" transform="translate(345,203)"/>
<path d="M0 0 C0.99 0 1.98 0 3 0 C3 2.31 3 4.62 3 7 C5.31 7 7.62 7 10 7 C9.67 7.99 9.34 8.98 9 10 C6.03 9.505 6.03 9.505 3 9 C2.67 9.99 2.34 10.98 2 12 C2 9.36 2 6.72 2 4 C1.34 4 0.68 4 0 4 C0 2.68 0 1.36 0 0 Z " fill="#6B6B6B" transform="translate(305,405)"/>
<path d="M0 0 C3.3 0 6.6 0 10 0 C10 1.32 10 2.64 10 4 C7.69 4 5.38 4 3 4 C3 4.66 3 5.32 3 6 C2.34 6 1.68 6 1 6 C0.67 4.02 0.34 2.04 0 0 Z " fill="#BCBCBC" transform="translate(263,407)"/>
<path d="M0 0 C0.66 0 1.32 0 2 0 C2.19294408 4.82360189 1.75747614 8.49646738 0 13 C-0.99 12.67 -1.98 12.34 -3 12 C-2.01 8.04 -1.02 4.08 0 0 Z " fill="#8C8C8C" transform="translate(177,397)"/>
<path d="M0 0 C1.32 0.33 2.64 0.66 4 1 C4 3.31 4 5.62 4 8 C3.34 8 2.68 8 2 8 C2 8.66 2 9.32 2 10 C1.34 10 0.68 10 0 10 C0 6.7 0 3.4 0 0 Z " fill="#969696" transform="translate(240,409)"/>
<path d="M0 0 C0.99 0 1.98 0 3 0 C3 2.31 3 4.62 3 7 C2.01 7.33 1.02 7.66 0 8 C0.33 9.98 0.66 11.96 1 14 C0.67 13.34 0.34 12.68 0 12 C-0.66 12 -1.32 12 -2 12 C-2 10.68 -2 9.36 -2 8 C-2.66 7.67 -3.32 7.34 -4 7 C-2.35 7 -0.7 7 1 7 C0.67 4.69 0.34 2.38 0 0 Z " fill="#7C7C7C" transform="translate(169,395)"/>
<path d="M0 0 C0.66 0 1.32 0 2 0 C2 1.65 2 3.3 2 5 C1.34 5 0.68 5 0 5 C-0.33 7.97 -0.66 10.94 -1 14 C-1.66 14 -2.32 14 -3 14 C-3.08159574 9.83861737 -2.98248524 6.0527516 -2 2 C-1.34 2 -0.68 2 0 2 C0 1.34 0 0.68 0 0 Z " fill="#989898" transform="translate(286,407)"/>
<path d="M0 0 C2.31 0 4.62 0 7 0 C7 1.32 7 2.64 7 4 C4.69 4.33 2.38 4.66 0 5 C0 3.35 0 1.7 0 0 Z " fill="#E9E9E9" transform="translate(308,407)"/>
<path d="M0 0 C0.99 0.33 1.98 0.66 3 1 C2.67 3.97 2.34 6.94 2 10 C1.34 10 0.68 10 0 10 C0 9.34 0 8.68 0 8 C-0.66 8 -1.32 8 -2 8 C-2 6.35 -2 4.7 -2 3 C-1.34 3 -0.68 3 0 3 C0 2.01 0 1.02 0 0 Z " fill="#8F8F8F" transform="translate(230,409)"/>
<path d="M0 0 C4.455 0.99 4.455 0.99 9 2 C9 3.32 9 4.64 9 6 C7.68 5.67 6.36 5.34 5 5 C5 4.34 5 3.68 5 3 C2.69 3.66 0.38 4.32 -2 5 C-2 4.34 -2 3.68 -2 3 C-1.34 3 -0.68 3 0 3 C0 2.01 0 1.02 0 0 Z " fill="#9A9A9A" transform="translate(116,373)"/>
<path d="M0 0 C1.32 0 2.64 0 4 0 C4 0.66 4 1.32 4 2 C1.72942623 2.05398987 -0.54151288 2.09278742 -2.8125 2.125 C-4.70935547 2.15980469 -4.70935547 2.15980469 -6.64453125 2.1953125 C-10 2 -10 2 -13 0 C-8.34635962 -1.02153082 -4.679813 -0.77996883 0 0 Z " fill="#363636" transform="translate(148,313)"/>
<path d="M0 0 C0.66 0 1.32 0 2 0 C2 2.31 2 4.62 2 7 C-0.33333333 7 -2.66666667 7 -5 7 C-4.67 5.35 -4.34 3.7 -4 2 C-3.67 2.99 -3.34 3.98 -3 5 C-2.34 5 -1.68 5 -1 5 C-0.67 3.35 -0.34 1.7 0 0 Z " fill="#E5E5E5" transform="translate(97,371)"/>
<path d="M0 0 C-0.33 1.32 -0.66 2.64 -1 4 C-2.65 4 -4.3 4 -6 4 C-6 3.34 -6 2.68 -6 2 C-7.32 1.67 -8.64 1.34 -10 1 C-6.78548731 -0.60725635 -3.56387464 -0.05748185 0 0 Z " fill="#B7B7B7" transform="translate(301,405)"/>
<path d="M0 0 C0.99 0 1.98 0 3 0 C3 1.32 3 2.64 3 4 C2.34 4 1.68 4 1 4 C0.87625 4.804375 0.7525 5.60875 0.625 6.4375 C0.41875 7.283125 0.2125 8.12875 0 9 C-0.99 9.495 -0.99 9.495 -2 10 C-2.1953125 3.9453125 -2.1953125 3.9453125 -2 2 C-1.34 1.34 -0.68 0.68 0 0 Z " fill="#6E6E6E" transform="translate(108,371)"/>
<path d="M0 0 C0.99 0.33 1.98 0.66 3 1 C2.67 1.99 2.34 2.98 2 4 C1.85507877 5.40664926 1.75371069 6.8181133 1.68359375 8.23046875 C1.64169922 9.03291016 1.59980469 9.83535156 1.55664062 10.66210938 C1.51732422 11.49548828 1.47800781 12.32886719 1.4375 13.1875 C1.39431641 14.03248047 1.35113281 14.87746094 1.30664062 15.74804688 C1.20068482 17.83184433 1.0998498 19.91590103 1 22 C0.67 22 0.34 22 0 22 C0 14.74 0 7.48 0 0 Z " fill="#262626" transform="translate(380,203)"/>
<path d="M0 0 C6.6 0 13.2 0 20 0 C20 0.33 20 0.66 20 1 C14.72 1 9.44 1 4 1 C4 1.66 4 2.32 4 3 C2.68 3 1.36 3 0 3 C0 2.01 0 1.02 0 0 Z " fill="#4E4E4E" transform="translate(50,104)"/>
<path d="M0 0 C0 0.99 0 1.98 0 3 C-1.32 3 -2.64 3 -4 3 C-4 3.66 -4 4.32 -4 5 C-4.66 5 -5.32 5 -6 5 C-6 4.34 -6 3.68 -6 3 C-8.31 3 -10.62 3 -13 3 C-13.33 2.34 -13.66 1.68 -14 1 C-11.02148438 1.04882812 -11.02148438 1.04882812 -8.04296875 1.09765625 C-5.18312488 0.96095243 -2.92241729 0 0 0 Z " fill="#848484" transform="translate(360,220)"/>
<path d="M0 0 C1.32 0.99 2.64 1.98 4 3 C-0.62 3 -5.24 3 -10 3 C-10 2.34 -10 1.68 -10 1 C-6.86967764 -0.56516118 -3.40926916 -0.540337 0 0 Z " fill="#C0C0C0" transform="translate(196,200)"/>
<path d="M0 0 C2 3.75 2 3.75 2 6 C4.64 5.67 7.28 5.34 10 5 C10 5.66 10 6.32 10 7 C7.36 7 4.72 7 2 7 C1.67 7.66 1.34 8.32 1 9 C0.01 8.01 -0.98 7.02 -2 6 C-1.34 5.67 -0.68 5.34 0 5 C0 3.35 0 1.7 0 0 Z " fill="#BCBCBC" transform="translate(145,393)"/>
<path d="M0 0 C0 0.66 0 1.32 0 2 C1.32 2.66 2.64 3.32 4 4 C-2.75 5.125 -2.75 5.125 -5 4 C-5 3.01 -5 2.02 -5 1 C-3 0 -3 0 0 0 Z " fill="#DCDCDC" transform="translate(121,376)"/>
<path d="M0 0 C1.9375 0.6875 1.9375 0.6875 4 2 C4.75 4.625 4.75 4.625 5 7 C5.66 7 6.32 7 7 7 C7 7.66 7 8.32 7 9 C5.1875 8.875 5.1875 8.875 3 8 C0 2.96428571 0 2.96428571 0 0 Z " fill="#929292" transform="translate(424,364)"/>
<path d="M0 0 C1.98 0 3.96 0 6 0 C6 0.66 6 1.32 6 2 C7.65 2 9.3 2 11 2 C11 2.66 11 3.32 11 4 C7.7 4 4.4 4 1 4 C1.66 3.34 2.32 2.68 3 2 C2.01 1.34 1.02 0.68 0 0 Z " fill="#151515" transform="translate(88,310)"/>
<path d="M0 0 C2.64 0 5.28 0 8 0 C8 0.33 8 0.66 8 1 C5.69 1 3.38 1 1 1 C1 1.99 1 2.98 1 4 C3.31 4.33 5.62 4.66 8 5 C8 5.33 8 5.66 8 6 C5.36 6.33 2.72 6.66 0 7 C0 4.69 0 2.38 0 0 Z " fill="#757575" transform="translate(263,409)"/>
<path d="M0 0 C0.33 0.99 0.66 1.98 1 3 C1.66 3.66 2.32 4.32 3 5 C0.03 5 -2.94 5 -6 5 C-6 4.34 -6 3.68 -6 3 C-6.66 3 -7.32 3 -8 3 C-8 2.34 -8 1.68 -8 1 C-5.36 1.33 -2.72 1.66 0 2 C0 1.34 0 0.68 0 0 Z " fill="#B9B9B9" transform="translate(202,411)"/>
<path d="M0 0 C1.98 0 3.96 0 6 0 C6.33 0.66 6.66 1.32 7 2 C6.67 2.66 6.34 3.32 6 4 C4.02 4 2.04 4 0 4 C0 2.68 0 1.36 0 0 Z " fill="#EAEAEA" transform="translate(250,411)"/>
<path d="M0 0 C6.625 -0.25 6.625 -0.25 10 2 C8 4 8 4 5.5625 4.25 C3 4 3 4 0 2 C0 1.34 0 0.68 0 0 Z " fill="#B1B1B1" transform="translate(247,407)"/>
<path d="M0 0 C-1.69179328 2.04219706 -2.63727666 2.91793306 -5.26171875 3.51171875 C-6.06222656 3.56972656 -6.86273438 3.62773437 -7.6875 3.6875 C-8.49574219 3.75324219 -9.30398438 3.81898438 -10.13671875 3.88671875 C-11.05904297 3.94279297 -11.05904297 3.94279297 -12 4 C-11.34 3.34 -10.68 2.68 -10 2 C-9.01 2 -8.02 2 -7 2 C-7 1.34 -7 0.68 -7 0 C-2.25 -1.125 -2.25 -1.125 0 0 Z " fill="#AFAFAF" transform="translate(363,313)"/>
<path d="M0 0 C0.33 0.66 0.66 1.32 1 2 C1.66 2 2.32 2 3 2 C2.01 4.97 1.02 7.94 0 11 C-2 7 -2 7 -1.125 3.25 C-0.75375 2.1775 -0.3825 1.105 0 0 Z " fill="#6F6F6F" transform="translate(360,148)"/>
<path d="M0 0 C0.66 0 1.32 0 2 0 C2.33 1.65 2.66 3.3 3 5 C3.66 5 4.32 5 5 5 C5 6.65 5 8.3 5 10 C3.68 10 2.36 10 1 10 C0.67 6.7 0.34 3.4 0 0 Z " fill="#C1C1C1" transform="translate(305,409)"/>
<path d="M0 0 C0.99 0 1.98 0 3 0 C3 0.66 3 1.32 3 2 C3.66 2 4.32 2 5 2 C5 3.32 5 4.64 5 6 C4.34 6 3.68 6 3 6 C2.67 6.66 2.34 7.32 2 8 C-0.97 7.505 -0.97 7.505 -4 7 C-4 6.67 -4 6.34 -4 6 C-2.02 6 -0.04 6 2 6 C1.49396008 3.83125748 1.00016187 2.00032373 0 0 Z " fill="#848484" transform="translate(254,409)"/>
<path d="M0 0 C1.32 0 2.64 0 4 0 C3.67 4.95 3.34 9.9 3 15 C2.67 15 2.34 15 2 15 C2 10.71 2 6.42 2 2 C1.34 2 0.68 2 0 2 C0 1.34 0 0.68 0 0 Z " fill="#DADADA" transform="translate(342,397)"/>
<path d="M0 0 C2.31 0 4.62 0 7 0 C7 0.99 7 1.98 7 3 C5.68 3 4.36 3 3 3 C3 3.66 3 4.32 3 5 C2.01 5 1.02 5 0 5 C0 3.35 0 1.7 0 0 Z " fill="#969696" transform="translate(99,373)"/>
<path d="M0 0 C2.31 0 4.62 0 7 0 C7 1.32 7 2.64 7 4 C4.69 4 2.38 4 0 4 C0 2.68 0 1.36 0 0 Z " fill="#D2D2D2" transform="translate(266,412)"/>
<path d="M0 0 C0.66 0 1.32 0 2 0 C2.625 2.375 2.625 2.375 3 5 C2.34 5.66 1.68 6.32 1 7 C1 6.01 1 5.02 1 4 C0.34 4 -0.32 4 -1 4 C-1.33 4.99 -1.66 5.98 -2 7 C-2.66 7 -3.32 7 -4 7 C-4 6.34 -4 5.68 -4 5 C-3.34 5 -2.68 5 -2 5 C-1.34 3.35 -0.68 1.7 0 0 Z " fill="#4B4B4B" transform="translate(385,286)"/>
<path d="M0 0 C0.66 0 1.32 0 2 0 C1.69381595 3.67420866 1.24228216 4.78135513 -1.5625 7.3125 C-2.366875 7.869375 -3.17125 8.42625 -4 9 C-4 8.01 -4 7.02 -4 6 C-3.34 6 -2.68 6 -2 6 C-2 4.68 -2 3.36 -2 2 C-1.34 2 -0.68 2 0 2 C0 1.34 0 0.68 0 0 Z " fill="#3D3D3D" transform="translate(312,243)"/>
<path d="M0 0 C0.66 0 1.32 0 2 0 C2 0.99 2 1.98 2 3 C2.66 3 3.32 3 4 3 C4.625 4.875 4.625 4.875 5 7 C4.34 7.66 3.68 8.32 3 9 C2.67 7.68 2.34 6.36 2 5 C1.34 5 0.68 5 0 5 C-0.33 4.01 -0.66 3.02 -1 2 C-0.67 1.34 -0.34 0.68 0 0 Z " fill="#5A5A5A" transform="translate(388,211)"/>
<path d="M0 0 C5.77759884 -0.12036664 11.27959989 0.1679418 17 1 C17 1.33 17 1.66 17 2 C13.7 2.33 10.4 2.66 7 3 C7 2.34 7 1.68 7 1 C4.69 1 2.38 1 0 1 C0 0.67 0 0.34 0 0 Z " fill="#434343" transform="translate(104,101)"/>
<path d="M0 0 C1.32 0 2.64 0 4 0 C4 0.66 4 1.32 4 2 C3.34 2 2.68 2 2 2 C2 4.31 2 6.62 2 9 C1.34 9 0.68 9 0 9 C0 6.03 0 3.06 0 0 Z " fill="#8E8E8E" transform="translate(291,407)"/>
<path d="M0 0 C2.64 0 5.28 0 8 0 C7.33333333 1.33333333 6.66666667 2.66666667 6 4 C4.35 4 2.7 4 1 4 C0.67 2.68 0.34 1.36 0 0 Z " fill="#BBBBBB" transform="translate(307,403)"/>
<path d="M0 0 C0.66 0 1.32 0 2 0 C2 1.98 2 3.96 2 6 C1.34 6 0.68 6 0 6 C0 6.99 0 7.98 0 9 C-0.66 9 -1.32 9 -2 9 C-2 7.35 -2 5.7 -2 4 C-1.34 4 -0.68 4 0 4 C0 2.68 0 1.36 0 0 Z " fill="#686868" transform="translate(162,396)"/>
<path d="M0 0 C3.3 0 6.6 0 10 0 C10 0.66 10 1.32 10 2 C6.7 2.33 3.4 2.66 0 3 C0 2.01 0 1.02 0 0 Z " fill="#949494" transform="translate(407,310)"/>
<path d="M0 0 C5.94 0.99 5.94 0.99 12 2 C12 2.33 12 2.66 12 3 C9.36 3 6.72 3 4 3 C4 3.66 4 4.32 4 5 C3.34 5 2.68 5 2 5 C2 4.34 2 3.68 2 3 C1.34 3 0.68 3 0 3 C0 2.01 0 1.02 0 0 Z " fill="#888888" transform="translate(308,220)"/>
<path d="M0 0 C0.99 0.33 1.98 0.66 3 1 C2.67 3.97 2.34 6.94 2 10 C1.34 10 0.68 10 0 10 C-0.144375 8.88625 -0.28875 7.7725 -0.4375 6.625 C-0.78372035 3.17857953 -0.78372035 3.17857953 -2 1 C-1.34 0.67 -0.68 0.34 0 0 Z " fill="#7A7A7A" transform="translate(235,203)"/>
<path d="M0 0 C0.66 0 1.32 0 2 0 C2 1.65 2 3.3 2 5 C2.66 5 3.32 5 4 5 C4.33 7.31 4.66 9.62 5 12 C4.34 12 3.68 12 3 12 C2.49440092 10.56445975 1.9957251 9.1264798 1.5 7.6875 C1.2215625 6.88699219 0.943125 6.08648437 0.65625 5.26171875 C0 3 0 3 0 0 Z " fill="#5B5B5B" transform="translate(380,145)"/>
<path d="M0 0 C2.64 0.33 5.28 0.66 8 1 C7.01 1.33 6.02 1.66 5 2 C5 2.66 5 3.32 5 4 C3.35 4 1.7 4 0 4 C0 2.68 0 1.36 0 0 Z " fill="#EBEBEB" transform="translate(186,401)"/>
<path d="M0 0 C0.66 0 1.32 0 2 0 C2 1.65 2 3.3 2 5 C1.34 5 0.68 5 0 5 C0 5.66 0 6.32 0 7 C-0.66 7 -1.32 7 -2 7 C-2.125 4.625 -2.125 4.625 -2 2 C-1.34 1.34 -0.68 0.68 0 0 Z " fill="#727272" transform="translate(140,385)"/>
<path d="M0 0 C1.65 0 3.3 0 5 0 C5 0.99 5 1.98 5 3 C0.545 3.495 0.545 3.495 -4 4 C-3.67 3.34 -3.34 2.68 -3 2 C-2.01 2 -1.02 2 0 2 C0 1.34 0 0.68 0 0 Z " fill="#0E0E0E" transform="translate(148,310)"/>
<path d="M0 0 C1.65 0 3.3 0 5 0 C5 0.66 5 1.32 5 2 C4.01 2 3.02 2 2 2 C2 2.99 2 3.98 2 5 C0.68 5.33 -0.64 5.66 -2 6 C-2 5.34 -2 4.68 -2 4 C-1.34 4 -0.68 4 0 4 C0 2.68 0 1.36 0 0 Z " fill="#D1D1D1" transform="translate(249,417)"/>
<path d="M0 0 C3.85645121 -0.22036864 6.49223216 0.39644899 10 2 C10 2.66 10 3.32 10 4 C8.72125 3.896875 7.4425 3.79375 6.125 3.6875 C5.04605469 3.60048828 5.04605469 3.60048828 3.9453125 3.51171875 C2 3 2 3 0 0 Z " fill="#9B9B9B" transform="translate(184,398)"/>
<path d="M0 0 C0 0.66 0 1.32 0 2 C-2.76250036 3.38125018 -4.94731099 3.19079306 -8 3 C-8.66 2.34 -9.32 1.68 -10 1 C-6.78548731 -0.60725635 -3.56387464 -0.05748185 0 0 Z " fill="#8B8B8B" transform="translate(414,385)"/>
<path d="M0 0 C0.66 0 1.32 0 2 0 C2 2.31 2 4.62 2 7 C1.34 7 0.68 7 0 7 C0 6.34 0 5.68 0 5 C-0.66 5 -1.32 5 -2 5 C-2 4.01 -2 3.02 -2 2 C-1.34 2 -0.68 2 0 2 C0 1.34 0 0.68 0 0 Z " fill="#B7B7B7" transform="translate(397,378)"/>
<path d="M0 0 C0.66 0.33 1.32 0.66 2 1 C1.690625 2.0725 1.38125 3.145 1.0625 4.25 C0.33187904 6.82866222 -0.37482904 9.39512102 -1 12 C-1.66 12 -2.32 12 -3 12 C-2.67 9.69 -2.34 7.38 -2 5 C-1.34 5 -0.68 5 0 5 C0 3.35 0 1.7 0 0 Z " fill="#686868" transform="translate(194,254)"/>
<path d="M0 0 C1.32 0 2.64 0 4 0 C3.67 2.64 3.34 5.28 3 8 C0.37613513 4.93882432 0 4.26826873 0 0 Z " fill="#7F7F7F" transform="translate(400,242)"/>
<path d="M0 0 C0.33 0.66 0.66 1.32 1 2 C1.66 2 2.32 2 3 2 C3.33 4.64 3.66 7.28 4 10 C1.2027092 7.93243723 0.97307727 6.85559629 0.3125 3.3125 C0.209375 2.219375 0.10625 1.12625 0 0 Z " fill="#B0B0B0" transform="translate(383,104)"/>
<path d="M0 0 C0.33 0 0.66 0 1 0 C1 4.29 1 8.58 1 13 C0.01 13 -0.98 13 -2 13 C-2 12.01 -2 11.02 -2 10 C-1.34 10 -0.68 10 0 10 C0 6.7 0 3.4 0 0 Z " fill="#636363" transform="translate(343,399)"/>
<path d="M0 0 C1.32 0.33 2.64 0.66 4 1 C4 1.66 4 2.32 4 3 C0.04 3 -3.92 3 -8 3 C-8 2.67 -8 2.34 -8 2 C-5.36 2 -2.72 2 0 2 C0 1.34 0 0.68 0 0 Z " fill="#191919" transform="translate(417,310)"/>
<path d="M0 0 C0.66 0 1.32 0 2 0 C1.67 1.65 1.34 3.3 1 5 C0.34 5 -0.32 5 -1 5 C-1 5.66 -1 6.32 -1 7 C-1.66 7 -2.32 7 -3 7 C-3 5.35 -3 3.7 -3 2 C-2.34 2 -1.68 2 -1 2 C-0.67 1.34 -0.34 0.68 0 0 Z " fill="#D4D4D4" transform="translate(185,274)"/>
<path d="M0 0 C0.66 0 1.32 0 2 0 C2.52992692 1.45505358 3.0486789 2.91418127 3.5625 4.375 C3.85253906 5.18710937 4.14257812 5.99921875 4.44140625 6.8359375 C5 9 5 9 4 11 C3.32880451 9.5437455 2.66318193 8.08492133 2 6.625 C1.62875 5.81289063 1.2575 5.00078125 0.875 4.1640625 C0 2 0 2 0 0 Z " fill="#B6B6B6" transform="translate(443,264)"/>
<path d="M0 0 C0.99 0 1.98 0 3 0 C2.67 2.31 2.34 4.62 2 7 C1.34 7 0.68 7 0 7 C0 4.69 0 2.38 0 0 Z " fill="#878787" transform="translate(155,393)"/>
<path d="M0 0 C2.31 0 4.62 0 7 0 C7.33 1.32 7.66 2.64 8 4 C7.01 4 6.02 4 5 4 C5 3.34 5 2.68 5 2 C3.35 1.67 1.7 1.34 0 1 C0 0.67 0 0.34 0 0 Z " fill="#989898" transform="translate(111,386)"/>
<path d="M0 0 C0.66 0.33 1.32 0.66 2 1 C2 2.32 2 3.64 2 5 C1.01 5 0.02 5 -1 5 C-1 5.66 -1 6.32 -1 7 C-1.66 7 -2.32 7 -3 7 C-2.67 5.35 -2.34 3.7 -2 2 C-1.34 2 -0.68 2 0 2 C0 1.34 0 0.68 0 0 Z " fill="#C1C1C1" transform="translate(208,264)"/>
<path d="M0 0 C0.66 0 1.32 0 2 0 C2 0.99 2 1.98 2 3 C2.66 3 3.32 3 4 3 C4.33 5.31 4.66 7.62 5 10 C4.34 10 3.68 10 3 10 C2.01 6.7 1.02 3.4 0 0 Z " fill="#AEAEAE" transform="translate(392,130)"/>
<path d="M0 0 C0 1.32 0 2.64 0 4 C-0.66 4 -1.32 4 -2 4 C-2 3.34 -2 2.68 -2 2 C-3.98 2 -5.96 2 -8 2 C-4.77208445 -0.1519437 -3.71599191 -0.20086443 0 0 Z " fill="#C3C3C3" transform="translate(303,417)"/>
<path d="M0 0 C1.32 0.33 2.64 0.66 4 1 C4.33 2.65 4.66 4.3 5 6 C3.35 5.67 1.7 5.34 0 5 C0.66 3.68 1.32 2.36 2 1 C1.34 0.67 0.68 0.34 0 0 Z " fill="#A1A1A1" transform="translate(313,411)"/>
<path d="M0 0 C2.31 0.66 4.62 1.32 7 2 C4.35261084 3.4606285 3.10551666 4 0 4 C0 2.68 0 1.36 0 0 Z " fill="#F2F2F2" transform="translate(295,414)"/>
<path d="M0 0 C1.65 0 3.3 0 5 0 C5 0.66 5 1.32 5 2 C4.34 2 3.68 2 3 2 C2.67 2.66 2.34 3.32 2 4 C1.01 4.33 0.02 4.66 -1 5 C-0.67 3.35 -0.34 1.7 0 0 Z " fill="#EAEAEA" transform="translate(140,390)"/>
<path d="M0 0 C0.66 0 1.32 0 2 0 C2.66 1.65 3.32 3.3 4 5 C3.34 5 2.68 5 2 5 C1.67 5.66 1.34 6.32 1 7 C0 6 0 6 -0.0625 2.9375 C-0.041875 1.968125 -0.02125 0.99875 0 0 Z " fill="#ACACAC" transform="translate(376,386)"/>
<path d="M0 0 C0.99 0 1.98 0 3 0 C3 0.66 3 1.32 3 2 C4.65 2.33 6.3 2.66 8 3 C6.125 4.0625 6.125 4.0625 4 5 C3.34 4.67 2.68 4.34 2 4 C2 3.34 2 2.68 2 2 C1.34 2 0.68 2 0 2 C0 1.34 0 0.68 0 0 Z " fill="#939393" transform="translate(387,383)"/>
<path d="M0 0 C0.99 0 1.98 0 3 0 C3 0.66 3 1.32 3 2 C5.97 2.495 5.97 2.495 9 3 C5.67465243 4.10844919 3.37817425 3.84454356 0 3 C0 2.01 0 1.02 0 0 Z " fill="#C2C2C2" transform="translate(334,302)"/>
<path d="M0 0 C5.94 0.99 5.94 0.99 12 2 C12 2.33 12 2.66 12 3 C8.04 3 4.08 3 0 3 C0 2.01 0 1.02 0 0 Z " fill="#DADADA" transform="translate(186,223)"/>
<path d="M0 0 C0 0.66 0 1.32 0 2 C-1.65 2.33 -3.3 2.66 -5 3 C-5 3.66 -5 4.32 -5 5 C-5.66 5 -6.32 5 -7 5 C-7 4.01 -7 3.02 -7 2 C-4 0 -4 0 0 0 Z " fill="#5B5B5B" transform="translate(203,220)"/>
<path d="M0 0 C0.66 0 1.32 0 2 0 C2.66 1.32 3.32 2.64 4 4 C0.25 5.125 0.25 5.125 -2 4 C-2 3.34 -2 2.68 -2 2 C-1.34 2 -0.68 2 0 2 C0 1.34 0 0.68 0 0 Z " fill="#777777" transform="translate(184,218)"/>
<path d="M0 0 C1.32 0 2.64 0 4 0 C4 0.66 4 1.32 4 2 C3.01 2.495 3.01 2.495 2 3 C0.86649466 5.01669827 0.86649466 5.01669827 0 7 C-1.125 2.25 -1.125 2.25 0 0 Z " fill="#7E7E7E" transform="translate(262,201)"/>
</svg>
